<?xml version="1.0" encoding="UTF-8" standalone="no"?>
<!DOCTYPE svg PUBLIC "-//W3C//DTD SVG 1.1//EN" "http://www.w3.org/Graphics/SVG/1.1/DTD/svg11.dtd">
<svg width="120pt" height="120pt" viewBox="0 0 120 120" overflow="visible" version="1.1" xmlns="http://www.w3.org/2000/svg">
  <path d="M34.37855,10.06725 L34.99063,9.565997 L35.60669,9.294678 L37.70934,9.1092 L38.19894,9.032556 L39.75681,8.91759 L39.97785,8.55583 L38.55243,7.652965 L38.58998,7.419968 L37.70934,6.727107 L37.48033,6.379143 L36.64522,4.82787 L36.44579,4.44465 L35.8377,4.752759 L35.32035,4.467643 L32.21075,1.527582 L31.55713,0.851583 L31.425,0.8117282 L31.32613,0.5940594 L30.7536,0.7182226 L30.81691,1.012535 L30.01322,1.182685 L27.99549,1.657877 L25.7092,2.206648 L20.59153,3.255136 L19.51162,3.573975 L19.02585,4.429321 L18.72387,5.08386 L18.43952,5.678617 L18.4849,6.325492 L18.51448,6.842072 L19.21746,7.082734 L19.58658,6.912585 L21.17004,8.022388 L21.24699,8.385681 L21.46021,8.600284 L22.99432,8.732112 L25.34974,9.555267 L26.61145,9.489353 L26.63705,10.02739 L27.83362,9.966079 L27.80005,9.424973 L28.73587,9.372854 L29.26686,9.489353 L31.29271,9.43417 L31.34008,9.294678 L33.23732,9.225698 L33.71512,9.866442 z" stroke="#000000" stroke-width="0.24" fill-opacity="0" />
  <path d="M84.49402,119.2051 L85.34891,118.9261 L85.91163,118.595 L86.48615,117.7857 L86.71516,117.1449 L86.80989,116.7602 L86.90677,116.1976 L87.09424,115.517 L87.47731,114.8073 L87.65497,114.7092 L88.04401,114.5682 L87.99649,114.3612 L87.97089,114.1436 L88.1881,113.7144 L88.32821,113.2959 L88.51982,112.8406 L89.43985,111.7232 L90.17043,110.8831 L90.94038,109.8714 L91.32928,109.0406 L91.63539,107.8603 L91.00553,107.0341 L90.5495,106.5727 L90.39545,106.332 L90.39545,106.0086 L90.48619,104.5661 L90.70141,103.208 L90.68562,101.6583 L90.51977,101.3425 L90.72517,100.8259 L90.81009,99.93839 L90.66401,98.56646 L90.97196,97.8506 L91.42202,97.60381 L91.89001,97.41527 L92.20593,97.58541 L93.38855,98.39631 L93.88213,98.76573 L94.22565,98.92209 L94.57515,98.88989 L94.85152,98.78106 L95.94937,97.39381 L95.97099,97.16234 L95.78352,96.92168 L94.42707,95.77355 L94.05198,95.58194 L93.74004,95.33515 L94.00461,94.55645 L94.08156,93.69957 L94.12893,93.43745 L94.52778,92.85035 L95.86445,92.22647 L96.6246,91.38492 L97.68873,90.52345 L99.05499,90.03752 L99.49339,89.16531 L98.33239,88.6472 L100.3185,84.24477 L100.4884,83.30206 L100.3759,81.25873 L100.5911,80.76514 L100.7451,80.57353 L101.1616,80.16579 L101.5605,79.65533 L100.8852,78.93795 L100.4806,79.19241 L99.97502,79.50204 L99.748,79.55569 L99.38869,79.45453 L99.07675,79.17094 L98.8951,78.69882 L98.94048,78.24355 L98.80038,77.99676 L98.22186,77.80362 L97.56641,77.425 L96.40142,76.94981 L95.80911,76.19103 L94.75879,74.92794 L94.51199,74.40983 L94.39549,74.09406 L94.25922,73.89324 L94.18825,73.45484 L94.20588,73.15286 L94.57515,72.77578 L94.56534,72.42168 L94.92863,71.96642 L95.16745,71.48816 L95.21282,71.00837 L95.41425,70.70792 L95.74596,69.81425 L98.22186,67.90889 L97.89015,67.47662 L95.41425,69.38351 L94.46861,69.9752 L94.1369,70.03959 L93.37077,70.02119 L92.74489,69.80046 L91.12004,69.38965 L87.55042,67.88436 L86.60863,67.49348 L85.91163,66.76689 L85.17906,65.64176 L84.70325,64.63926 L84.40128,63.89888 L84.27681,63.26733 L84.26501,62.53461 L84.31636,61.97971 L84.37952,61.39262 L87.10804,60.28895 L87.33321,60.51275 L87.41814,60.42691 L87.10221,59.90266 L85.67281,60.40545 L85.52856,59.88887 L84.97979,60.08967 L85.14166,60.5434 L84.58093,60.56027 L84.19986,60.39625 L83.8148,60.14333 L83.56801,59.77237 L82.98367,58.46942 L82.75849,57.70758 L82.80402,56.88136 L82.75068,56.28507 L83.15352,55.21359 L83.20471,54.8227 L83.10799,54.18043 L82.88097,53.84932 L82.91255,53.67304 L82.82763,52.81617 L82.9383,51.85352 L82.39719,50.57203 L81.90361,49.01309 L81.51073,47.62584 L80.81388,46.63866 L80.4604,44.28723 L78.87893,41.41002 L77.95491,38.57879 L76.02793,36.20436 L75.38029,36.24881 L73.47507,32.72473 L72.45632,32.8259 L69.94286,29.0075 L68.92411,29.37845 L66.60226,28.08317 L63.25369,27.47308 L62.48173,26.87066 L61.23198,25.00515 L61.10965,24.57134 L61.63681,24.2801 L61.67421,24.36441 L62.56665,23.87082 L62.38899,23.55658 L61.47478,24.05783 L61.52031,24.14827 L61.06612,24.39506 L61.01875,24.24944 L61.25773,22.87751 L62.03551,22.33028 L61.58929,21.3431 L60.32972,21.2496 L59.99402,20.60272 L60.29217,20.04629 L60.16386,19.74584 L59.94666,19.4592 L60.00598,18.85677 L59.52021,18.23289 L59.43529,18.03209 L59.42747,17.64733 L59.35834,17.35455 L59.58934,16.8533 L59.72945,16.38884 L59.78478,16.04394 L59.67426,15.78948 L59.50641,15.42619 L59.33856,15.34342 L59.17669,15.38787 L58.96745,15.25758 L58.80543,15.27137 L58.09663,15.93357 L58.03945,15.5105 L57.66236,14.96326 L57.45297,14.65515 L56.53094,14.26274 L56.80548,14.11558 L56.75214,14.01594 L56.59026,13.69251 L54.47964,12.79577 L53.87554,13.13607 L53.30485,12.17189 L54.52502,11.42385 L54.70084,11.71049 L54.97323,11.54801 L54.63171,11.0069 L54.36913,11.16939 L54.44608,11.29355 L53.2279,12.0416 L53.20613,11.98488 L53.05805,12.07992 L50.90007,10.51332 L50.59809,10.69113 L50.19923,9.996737 L51.4332,9.256356 L51.64045,9.602786 L51.89521,9.449498 L51.5635,8.900728 L51.30888,9.057082 L51.33847,9.1092 L49.88729,9.982941 L47.7313,8.97124 L47.2653,9.348329 L46.56447,8.931386 L46.39463,8.709118 L46.08851,8.030053 L46.01156,7.875232 L45.8615,7.769464 L45.63248,7.706616 L45.27118,7.721944 L43.93451,8.307504 L43.63254,8.538969 L43.50408,8.738243 L43.48829,8.963576 L43.79441,10.03506 L43.16455,11.76261 L43.02429,13.01038 L43.05004,14.10638 L42.98489,14.70881 L42.35304,17.04491 L42.04509,17.68719 L41.26715,20.2471 L40.64128,21.50559 L40.04897,21.99917 L39.6541,22.15246 L39.25525,22.63072 L38.87418,22.98635 L37.41119,23.24694 L35.31437,23.00781 L33.68354,22.51422 L32.24233,22.08961 L30.24621,21.18675 L28.98266,20.72535 L28.66275,20.25323 L28.10999,20.03862 L27.44657,20.13826 L26.97474,20.50922 L26.72197,20.6625 L26.05854,20.65637 L25.09314,20.67937 L22.94895,20.82499 L21.72295,20.53988 L21.31413,20.56287 L20.94501,20.86331 L20.18287,21.53471 L19.91032,22.51422 L19.74063,23.81717 L19.58658,24.6112 L19.88871,24.97449 L20.2638,25.48341 L20.49879,26.06897 L21.06734,26.85687 L21.44642,27.51294 L22.27172,28.50011 L22.94895,29.31714 L23.87695,29.87204 L24.14337,30.15715 L24.33099,30.55877 L25.0004,31.18265 L25.07735,31.87091 L25.81175,32.67721 L26.60348,33.73643 L26.85825,34.31432 L26.5739,34.55345 L26.56593,34.82477 L26.65882,35.14514 L26.83847,35.31682 L26.87603,35.55442 L26.85028,35.88092 L26.70618,36.05874 L26.3527,36.13232 L26.14347,36.17064 L25.96581,36.34998 L26.00336,36.79912 L27.21556,38.13119 L27.79208,38.44849 L28.23431,38.69529 L28.3784,38.97274 L29.01225,39.02792 L29.58278,39.94305 L29.69729,40.39985 L29.7606,41.12337 L29.7606,41.29352 L30.03897,42.04309 L30.05859,42.58113 L30.09814,43.22341 L30.26001,43.45181 L30.45545,43.60816 L30.82472,43.62349 L31.2038,43.56065 L31.64205,43.85496 L33.00831,45.14257 L33.96191,46.32902 L34.6629,47.27634 L35.56515,48.15928 L36.24636,48.29724 L37.34804,49.33806 L38.44574,50.64867 L38.76166,51.27409 L39.13875,52.02213 L39.44487,52.80083 L39.34017,53.43238 L39.23747,53.88918 L39.60674,54.18043 L39.82395,54.57591 L39.70147,54.90701 L39.32239,55.21359 L38.88414,56.00149 L38.9315,56.77253 L38.3648,57.18793 L37.52769,57.17414 L37.1644,56.91202 L36.37865,56.15477 L36.12189,56.41843 L36.19102,56.55639 L36.13186,56.68822 L36.3391,57.04384 L36.53071,57.29064 L36.82487,57.46539 L37.18617,57.54356 L37.84163,57.61407 L38.20293,58.4311 L38.22868,58.97834 L38.4675,60.00536 L38.76166,61.247 L38.78144,61.73292 L39.1901,62.71243 L39.47046,63.97552 L39.66391,66.05104 L39.75681,66.31929 L39.86135,66.42812 L40.09235,66.33768 L40.45764,66.14301 L40.79533,66.0587 L41.21978,66.0587 L41.76074,66.15681 L42.36102,66.39747 L42.892,66.75923 L43.79441,67.47662 L44.12214,67.77093 L44.73805,67.90889 L44.96905,68.06524 L48.67111,75.4108 L54.8785,80.96442 L62.36922,89.31094 L64.41071,92.82123 L65.70001,95.47311 L66.89642,96.7224 L67.3802,98.12652 L66.97153,98.7734 L67.11163,99.87707 L68.60619,101.5571 L70.75038,103.5314 L71.09988,104.2427 L71.76331,105.6928 L71.9845,106.3627 L72.0219,106.8409 L71.95477,107.3667 L71.82248,107.7668 L71.89958,107.9829 L72.19175,108.0213 L72.49587,107.9216 L72.67737,107.9446 L72.99728,108.0534 L73.24805,108.2297 L73.81461,109.1311 L74.37534,110.2087 L75.38029,112.4313 L75.30135,112.8406 L75.33292,112.9571 L75.51656,113.1441 L75.80873,113.1518 L75.98057,113.0966 L76.644,113.906 L76.85323,114.4149 L77.41396,115.1185 L77.69831,115.4174 L77.99247,115.773 L78.25704,115.9186 L78.47027,116.1501 L78.8354,116.7449 L78.83939,116.9917 L79.00141,117.0606 L79.13354,117.0913 L79.41789,117.3994 L79.64491,117.8608 L79.83453,118.0233 L79.95103,118.2486 L80.08914,118.618 L80.35371,118.9721 L80.64005,119.1591 L80.95399,119.3216 L81.13364,119.3354 L81.70418,119.3661 L82.58083,119.3584 L83.45948,119.4059 z" stroke="#000000" stroke-width="0.24" fill-opacity="0" />
</svg>