<?xml version="1.0" encoding="UTF-8" standalone="no"?>
<!DOCTYPE svg PUBLIC "-//W3C//DTD SVG 1.1//EN" "http://www.w3.org/Graphics/SVG/1.1/DTD/svg11.dtd">
<svg width="120pt" height="120pt" viewBox="0 0 120 120" overflow="visible" version="1.1" xmlns="http://www.w3.org/2000/svg">
  <path d="M28.33855,43.93903 L27.12833,42.95552 L26.91983,42.17433 L25.88619,42.0046 L25.80077,41.8922 L25.50538,41.73372 L23.89984,41.07842 L22.9052,40.62544 L22.33342,40.55126 L21.05643,41.37741 L20.20084,42.18557 L19.98075,42.5475 L19.99233,43.26012 L19.84621,43.27136 L19.68694,44.50552 L19.33805,44.66851 L19.20047,44.90005 L19.15708,45.22264 L18.92823,45.34741 L18.90654,45.60256 L18.55191,45.92403 L18.41434,46.24662 L18.55191,46.42758 L18.46649,46.85133 L18.18268,46.93676 L18.15525,47.47966 L17.72374,47.50776 L17.63978,47.42795 L17.54862,47.40659 L17.54862,47.54148 L17.53705,47.88655 L17.3807,47.85845 L17.31843,48.23162 L17.41543,48.42944 L17.66147,48.56545 L18.32891,48.50363 L20.13857,49.88391 L22.52012,50.95734 L24.19512,51.34737 L25.83404,51.13269 L26.94737,50.35262 L28.1432,49.14207 L29.10299,46.94687 L29.95859,46.59169 L30.53487,46.3534 L30.99088,45.92403 L31.27458,45.56771 L31.34989,45.02482 L30.95323,44.62917 L30.58545,44.75393 L30.25252,44.73145 L29.7212,44.81575 L29.05376,44.60669 z" stroke="#000000" stroke-width="0.24" fill-opacity="0" />
  <path d="M19.1092,60.48108 L20.1951,59.04459 L21.48648,57.61823 L21.62114,56.40879 L21.24763,55.58939 L20.52365,54.82056 L19.52767,54.38445 L18.05814,53.89775 L16.0864,52.39944 L15.69985,51.77674 L15.63758,51.16641 L14.39836,50.92812 L14.16086,51.27993 L13.71496,51.27993 L12.60017,50.67522 L11.66207,49.22749 L11.20022,48.13046 L11.34072,47.66062 L11.53326,46.97048 L11.66207,46.71533 L11.52168,46.58494 L11.03375,47.05028 L10.33304,47.0042 L9.309519,47.10648 L8.417729,47.53698 L7.408594,46.95362 L6.127335,46.93114 L4.866421,45.8903 L3.921016,44.9349 L2.264788,44.31219 L1.414924,44.81013 L0.8793331,45.62954 L0.5940594,46.09937 L0.9748739,47.38861 L1.979626,47.94949 L2.274904,48.31704 L2.703489,48.56545 L2.822184,49.25559 L2.778685,49.79174 L2.432715,50.17728 L2.264788,50.53921 L2.73822,51.51822 L2.765759,51.93073 L7.284053,55.00153 L7.783563,55.57702 L7.727138,55.79845 L8.007915,55.91759 L8.319266,56.25592 L8.369959,56.52231 L8.456733,56.58976 L8.517542,56.77072 L8.756506,56.94157 L9.468791,57.42714 L9.761146,57.57326 L10.22739,57.55191 L10.77601,57.5564 L11.21472,57.30912 L12.03704,57.37094 L12.86656,56.95731 L14.00889,57.49009 L14.39544,57.94756 L14.5011,58.80181 L14.46636,58.99401 L14.64148,59.29412 L14.61406,59.52005 L14.71679,59.88198 L15.03826,60.11353 L15.41323,60.66766 L15.75628,60.82502 L15.94309,60.85425 L16.17609,61.04083 L16.5106,61.04083 L16.87534,60.83739 L17.36181,61.0532 z" stroke="#000000" stroke-width="0.24" fill-opacity="0" />
  <path d="M57.16019,77.93358 L57.96082,78.18648 L60.09914,78.86538 L61.26024,79.21045 L61.63229,79.74886 L62.17957,79.24529 L62.04637,79.06433 L62.88174,78.82716 L63.38406,78.91596 L64.08049,77.98978 L64.61327,77.20409 L65.99873,76.9939 L69.44719,77.50308 L69.22284,78.88336 L68.71906,79.55103 L68.79864,80.69302 L68.6886,81.73386 L68.50909,82.11152 L68.54236,82.46333 L68.48594,82.92081 L68.43671,83.41312 L68.57563,84.08079 L69.48058,84.70686 L70.32887,85.1486 L70.58514,85.47793 L70.64156,85.81064 L70.64156,85.89044 L70.73868,86.04218 L70.75307,86.18943 L70.84434,86.20179 L70.90076,85.97362 L70.99057,85.97362 L71.26269,86.18943 L71.32496,86.52326 L71.19031,87.42809 L71.57539,88.90392 L71.83312,89.97285 L71.31911,90.75291 L71.17873,91.43743 L70.52287,91.89491 L69.42403,91.99831 L68.72917,91.65774 L67.05125,91.2396 L65.61791,91.03503 L64.37577,90.79225 L63.1134,90.92263 L61.64971,92.21862 L60.46107,94.15866 L59.57512,96.17063 L59.09877,97.70378 L59.18419,98.7952 L60.06441,99.39429 L61.99422,99.94955 L63.30594,100.4419 L63.92414,100.6498 L64.41927,100.5138 L66.72832,99.77983 L70.9066,99.37743 L72.97534,99.65956 L74.62865,99.17511 L75.60587,99.00426 L76.52958,98.47261 L77.20567,97.0305 L77.64718,95.58278 L78.22054,94.19125 L78.33923,92.31978 L78.13365,91.09798 L77.3809,90.95748 L77.28098,90.27857 L77.92953,89.80312 L78.43916,89.93913 L79.25282,89.93913 L79.90576,90.10885 L81.80511,92.47264 L82.08028,93.27518 L82.11501,94.47001 L82.33508,95.35685 L81.8775,96.23808 L82.01508,96.71353 L82.3017,97.26767 L82.58552,97.39806 L82.67667,97.72064 L82.64779,98.07133 L82.96914,98.16125 L83.30938,98.13316 L83.50046,98.27366 L84.06797,98.15114 L85.06261,98.11068 L85.21019,97.86789 L85.56493,97.77235 L86.31049,97.89037 L87.12562,98.12192 L87.89579,98.35909 L88.95415,98.31413 L90.14561,98.51307 L91.24444,99.24143 L92.13623,99.31561 L93.36252,100.1125 L93.63464,100.3328 L93.82146,100.3385 L94.00816,100.633 L94.13988,100.706 L95.54568,100.5138 L96.32024,100.1463 L97.15987,99.28189 L99.42565,96.79896 L100.1885,95.71878 L100.7938,95.02302 L101.422,94.20362 L102.8408,93.26957 L103.4807,92.79411 L104.261,91.7589 L104.5043,91.92413 L104.8662,91.94661 L104.9733,91.85107 L104.9632,91.53971 L105.0472,91.49475 L105.2281,91.64088 L105.9246,91.02492 L106.5413,91.01368 L106.841,90.69671 L106.8452,90.40896 L106.5645,90.10323 L106.7787,89.77502 L107.0653,89.55471 L107.475,88.86906 L109.0849,85.62405 L107.5648,82.03958 L107.0726,79.02499 L104.969,76.26442 L104.0453,75.11568 L103.8079,74.09846 L103.8079,73.34649 L104.1886,72.73054 L104.3176,72.06287 L104.6795,70.64437 L105.2412,69.22925 L106.1113,68.93587 L107.1001,68.31879 L107.8746,67.41959 L108.8316,66.74631 L109.9405,66.09663 L111.2624,65.02769 L111.8834,64.17458 L112.2309,63.44958 L112.9664,62.78867 L114.2649,62.46608 L115.6621,62.08616 L116.8565,61.3859 L118.1232,60.30011 L118.6704,59.07831 L119.1004,58.22406 L119.4059,57.3597 L118.6545,56.72014 L117.7497,56.13228 L117.2748,55.53881 L116.2802,55.46462 L115.1322,55.69055 L113.0315,56.08732 L111.7994,56.50546 L110.6572,56.94719 L108.8939,56.33011 L107.3448,53.44028 L108.2887,52.332 L109.1066,50.10872 L109.8363,49.36237 L110.0796,48.81385 L110.1027,48.36762 L110.0592,47.75616 L109.8494,47.54148 L109.1066,47.44593 L108.5884,47.66062 L108.2931,47.38299 L107.8312,46.39386 L108.2207,45.44295 L108.2018,44.69773 L108.0179,44.23914 L108.0962,43.54899 L108.7447,42.67789 L109.098,42.09565 L109.7118,41.34369 L110.0592,40.76707 L110.0303,40.11065 L109.8421,40.03759 L109.5439,39.9398 L109.2848,39.89596 L108.9446,39.9398 L108.4234,40.11739 L108.1237,40.29161 L107.5026,40.69851 L106.9409,40.90307 L106.8221,40.88509 L106.7454,40.90757 L106.6701,41.02222 L106.4833,40.93005 L106.4732,41.00423 L106.5456,41.02559 L106.5413,41.06044 L106.4949,41.08854 L106.4602,41.19644 L106.4458,41.28636 L106.6137,41.39426 L106.5645,41.49093 L106.4949,41.54713 L106.5079,41.65391 L106.5702,41.7562 L106.9538,42.57111 L106.9264,43.36803 L106.3488,44.60669 L105.4844,45.72058 L105.3817,47.22001 L105.9738,48.40134 L105.7161,49.02292 L105.3251,49.39159 L104.9979,50.05813 L105.0877,50.12108 L104.8112,50.50999 L104.6418,50.79436 L104.2393,50.71455 L104.0801,50.91238 L103.918,51.0585 L103.8833,50.93486 L103.8311,50.92812 L103.7877,51.02029 L103.7644,51.12707 L103.8079,51.17765 L103.9614,51.23947 L103.9614,51.34737 L103.8369,52.31964 L104.099,54.2327 L103.7587,55.20947 L103.1405,56.36383 L103.0016,57.26303 L102.8206,58.13976 L101.8405,58.35445 L100.9009,58.19596 L100.5172,57.94756 L99.51243,57.07195 L99.34596,55.53206 L99.32573,54.66095 L98.81037,52.67595 L98.42664,51.99817 L98.55983,51.66996 L98.52656,50.52797 L98.6221,49.88953 L99.80636,49.86031 L99.8122,49.62876 L99.60223,49.60516 L99.21569,49.45904 L98.8161,49.22187 L98.45417,48.97796 L98.0792,48.18104 L98.14867,47.55272 L98.23274,47.11773 L99.1723,45.96449 L99.4025,45.53399 L99.68766,45.01358 L99.65866,44.81575 L99.78758,44.57859 L100.1205,44.40324 L100.3985,44.30096 L100.426,44.20541 L100.0771,44.29533 L99.5747,44.5325 L98.91603,44.58421 L98.24859,44.65165 L97.60577,44.77529 L96.86887,45.24625 L95.81207,45.85546 L95.42845,45.67 L95.30965,45.41035 L94.96368,45.32493 L94.72044,45.08664 L94.65389,44.88881 L94.53509,44.41336 L94.62051,43.89968 L94.96952,43.50291 L95.16352,42.88245 L95.02594,42.44634 L94.27308,42.08441 L93.54349,41.72248 L93.47829,41.25377 L93.31902,41.23016 L92.69216,41.8079 L92.28246,41.82926 L91.45294,41.76744 L91.14744,41.74945 L90.577,41.28636 L89.72141,41.58085 L89.16254,41.23016 L88.51107,40.46696 L86.40749,39.18896 L86.09198,38.55052 L84.47913,36.83641 L83.40638,35.84615 L82.50447,34.97055 L81.31876,32.95633 L79.74649,31.04551 L79.29475,29.96533 L78.49131,29.09985 L77.69933,28.59741 L76.99716,27.62964 L76.41953,27.26209 L76.24587,26.42583 L75.50897,25.75255 L75.46548,25.35577 L75.53359,25.02306 L75.68118,24.8983 L75.70298,24.62067 L75.58417,24.44532 L75.31924,24.41722 L75.22809,24.49141 L74.58234,23.71584 L73.98302,22.92454 L73.62828,22.71547 L73.11865,21.87808 L72.66703,21.0126 L71.60877,20.07967 L70.99776,19.7627 L70.34775,19.50867 L70.09293,19.38391 L69.634,19.40751 L69.22868,19.29399 L68.27024,19.48057 L66.95998,20.06843 L66.22893,20.48656 L65.72795,20.57199 L63.98057,21.36329 L62.94401,21.56111 L62.08976,21.64092 L61.73367,21.82188 L60.64203,21.45995 L59.52151,21.19356 L59.28985,21.07442 L59.25658,20.16959 L57.64666,20.03358 L57.39769,20.3292 L57.19357,21.43635 L56.18016,21.73646 L53.72184,21.61731 L51.15359,22.17819 L50.66566,22.71547 L50.42242,22.80652 L49.7406,22.58509 L49.57987,22.61993 L49.27436,22.90768 L48.788,23.20779 L47.58924,23.30895 L46.63519,23.63154 L44.74157,23.97549 L42.14859,24.4116 L40.69221,24.31044 L38.49747,23.48991 L37.33772,23.23476 L36.41996,23.14484 L35.74387,23.48429 L34.78823,24.49141 L33.23058,25.93351 L32.52549,26.52137 L31.97675,26.48203 L30.34233,27.22163 L28.79176,28.25684 L28.33428,28.83458 L27.82027,29.45616 L27.54961,29.65398 L27.51488,29.83495 L27.23107,29.99231 L27.18184,30.08448 L27.23837,30.24184 L27.31503,30.45203 L27.42799,30.64986 L27.96224,30.8533 L28.09251,31.29391 L28.33855,32.01216 L28.40083,33.12605 L28.20547,34.07134 L27.9202,34.34223 L27.92751,34.75024 L28.03024,34.94133 L28.20547,35.07733 L28.61079,35.13353 L28.82503,35.57527 L28.99149,36.12378 L29.37523,36.38905 L30.00782,36.93195 L30.62895,37.76484 L32.03329,38.53928 L33.08435,39.21593 L34.12957,40.52428 L34.69135,41.51791 L35.21536,42.63292 L35.07497,43.9053 L35.11544,47.48415 L35.31236,47.83035 L35.99284,48.85432 L37.32187,50.89552 L38.02111,53.19749 L38.32077,53.45602 L38.8304,54.0967 L39.63969,54.90374 L39.55426,55.88275 L39.30091,56.52231 L37.6838,56.94719 L36.44885,57.4159 L35.42532,57.11579 L33.5534,56.1379 L32.55438,55.76361 L31.93629,55.79845 L31.12846,57.11579 L30.95761,59.58749 L30.87218,61.54327 L30.91265,63.58672 L30.91996,67.8321 L31.59166,69.1618 L32.25764,70.16779 L33.51574,70.59717 L34.70146,71.84819 L36.07096,72.52035 L37.55926,72.16965 L40.44897,69.50013 L41.48407,67.82648 L45.50882,67.30719 L50.91609,72.59453 z" stroke="#000000" stroke-width="0.24" fill-opacity="0" />
</svg>