<?xml version="1.0" encoding="UTF-8" standalone="no"?>
<!DOCTYPE svg PUBLIC "-//W3C//DTD SVG 1.1//EN" "http://www.w3.org/Graphics/SVG/1.1/DTD/svg11.dtd">
<svg width="120pt" height="120pt" viewBox="0 0 120 120" overflow="visible" version="1.1" xmlns="http://www.w3.org/2000/svg">
  <path d="M87.4077,69.44161 L86.99728,69.04704 L86.82932,68.28049 L86.9319,68.22412 L87.07282,67.87463 L87.24306,67.64916 L87.5024,67.4124 L87.50687,67.26588 L87.31413,67.02912 L87.27912,66.64575 L87.71886,66.40908 L87.88568,65.89049 L87.79885,65.25916 L87.43246,64.61654 L86.84621,63.87248 L86.80788,63.79362 L86.67597,63.52298 L86.12019,61.17815 L86.13935,59.50963 L85.82146,59.58858 L85.50014,59.79147 L85.25778,59.72381 L85.11127,59.0362 L85.91843,58.57397 L86.13489,58.51761 L85.75607,57.31132 L85.30067,55.07913 L84.94444,54.50417 L84.50357,53.44448 L84.39539,51.97894 L84.23189,51.34761 L83.9399,51.00941 L83.42586,50.98683 L81.63673,51.66323 L80.94675,51.7084 L80.40566,51.58437 L80.26816,51.41527 L79.88033,51.06578 L79.87132,50.54718 L80.06519,49.8369 L81.20723,47.71754 L82.5533,46.18434 L83.34576,45.78977 L83.8655,44.91039 L84.03802,44.30164 L83.99408,43.62524 L83.74375,43.33211 L83.77763,43.03898 L83.65807,42.667 L83.72012,42.38516 L83.48336,42.06945 L83.32327,41.42683 L83.29395,41.3141 L82.87907,40.93082 L82.54543,40.43481 L82.17002,40.11919 L81.53528,39.79219 L80.91069,38.02223 L80.46089,37.3797 L80.29066,36.25235 L80.223,35.3504 L80.59507,34.55005 L80.51954,33.87356 L80.41695,33.29869 L80.45643,32.79138 L80.31998,31.19052 L80.60181,30.64935 L80.43499,29.42056 L79.85889,28.51869 L79.55561,27.74075 L79.08331,26.77122 L78.75859,24.83225 L78.4982,23.88521 L78.95255,22.96084 L79.6041,22.54369 L80.06072,21.93494 L81.08321,19.62381 L81.93659,18.34995 L82.27147,18.31607 L83.12713,18.81217 L84.77753,19.99588 L86.0639,21.57416 L86.10329,22.34081 L85.83835,26.99678 L85.97926,27.51528 L85.90487,28.28193 L86.36263,28.91326 L86.61287,29.24017 L89.06712,29.99552 L89.67481,29.95036 L89.81573,29.83763 L90.03664,29.89399 L90.16294,29.98423 L90.71419,29.84892 L91.07156,29.82642 L91.69614,29.58966 L92.14594,29.07107 L92.66568,28.04517 L93.06139,26.51197 L92.93736,25.19294 L92.73106,22.82553 L91.89343,21.74326 L91.8494,21.5065 L91.19331,20.87517 L90.85966,20.09733 L90.94753,19.87186 L90.85064,19.69147 L90.64434,19.4435 L90.63419,19.13909 L90.43235,18.28229 L90.55183,17.97787 L90.51463,17.49315 L90.80215,17.03092 L90.60706,15.06928 L90.21143,14.31401 L90.01415,14.11104 L89.74465,13.80671 L89.38055,12.87096 L89.0525,12.623 L88.77066,12.21714 L88.52489,11.29269 L88.57452,10.9319 L86.41673,9.556598 L86.0492,9.319839 L85.4303,9.342333 L84.99284,8.384092 L81.9772,6.828397 L80.54212,5.870157 L78.44971,5.058436 L76.3145,4.325664 L74.33597,2.442969 L73.63707,1.834222 L71.01477,1.879298 L70.54353,1.665121 L70.02607,1.439565 L70.08699,1.022502 L69.29444,0.5940594 L68.21104,0.6166412 L68.27196,1.202894 L68.76009,1.631248 L68.57523,2.149843 L68.07467,2.45426 L67.7229,2.668437 L67.32614,2.566994 L67.22015,3.265893 L66.8233,3.288475 L66.52003,3.141956 L65.93946,3.209526 L64.13686,3.795779 L62.37477,4.483474 L61.70738,4.968196 L60.80323,5.351562 L59.19222,6.084334 L57.65,6.264726 L56.66016,6.580347 L56.23295,6.817106 L55.97816,7.053865 L55.71777,7.707688 L54.96915,8.034599 L54.7099,8.44046 L54.96915,9.128156 L55.03007,9.872218 L54.26798,11.68725 L53.54081,12.16077 L53.15411,12.65679 L52.59044,12.76952 L52.30415,12.67937 L52.02678,12.89355 L51.14521,12.89355 L49.30085,13.11901 L48.66164,13.3219 L47.96265,13.60373 L47.39899,14.11104 L47.40345,14.31401 L47.44178,15.32862 L48.65482,17.62838 L49.68071,19.28561 L49.9671,20.52568 L49.57813,21.1683 L48.81718,20.16498 L46.86691,16.85053 L45.81283,15.58787 L43.98536,14.99042 L42.9234,14.65222 L42.44429,14.4944 L41.56263,14.4944 L40.98207,14.686 L40.83327,14.73108 L39.53455,15.41877 L39.41508,16.96326 L38.72739,18.45139 L37.72398,19.24053 L36.4411,20.59334 L35.98448,20.72865 L35.64855,20.67229 L35.34527,20.95412 L35.10291,21.47272 L34.82563,21.99131 L33.68586,22.39717 L33.13453,22.65643 L32.42548,22.92697 L31.87082,23.15244 L31.53595,22.94955 L31.30715,22.43096 L30.37928,22.47603 L29.04004,23.26517 L29.05238,23.59208 L29.24748,23.93037 L29.29597,25.35084 L29.00398,25.72283 L29.02087,26.9629 L28.60258,27.86478 L28.5688,28.46232 L28.82919,28.78923 L28.39182,29.83763 L28.4572,30.75079 L28.31401,31.20181 L28.58569,31.67524 L28.55864,32.17126 L28.5372,32.66736 L27.87655,34.05395 L28.05362,34.78672 L27.60942,35.71118 L27.53835,35.86899 L28.16854,36.45524 L27.37607,38.66485 L27.10098,38.96926 L27.0671,39.45399 L26.93862,40.7843 L27.30842,41.96801 L27.2306,42.71207 L27.4538,43.5237 L27.87655,44.86531 L28.23847,45.77848 L28.5372,46.53383 L29.19785,47.16507 L29.90804,48.3037 L30.2339,48.74343 L30.89902,48.87867 L32.44911,51.528 L32.55852,52.54261 L31.9103,53.20773 L32.18872,54.05323 L31.9734,55.16937 L31.15722,56.05995 L30.01176,56.98441 L29.90804,57.8637 L29.95207,60.32135 L30.40073,61.13308 L30.94295,62.11381 L31.28011,64.25576 L31.58443,66.74728 L32.55852,68.52845 L33.09514,69.994 L34.79631,70.32099 L36.28329,71.3356 L37.29563,72.80115 L38.24371,72.45165 L38.67434,73.04919 L39.47145,74.52603 L39.62138,74.55981 L39.99109,74.33434 L40.38006,74.30056 L40.7882,74.55981 L40.16361,75.02204 L39.38803,75.47298 L39.42742,76.1156 L40.55144,76.02536 L41.026,76.65668 L42.70468,80.7264 L44.47123,83.33067 L45.50614,85.74316 L45.31227,86.73528 L46.8838,86.94946 L49.6661,88.00913 L50.85094,88.97867 L52.96471,90.30898 L54.27244,91.00788 L53.00418,91.6505 L50.50819,91.37996 L48.7721,91.92104 L47.84318,92.03378 L46.68197,92.76664 L44.9977,92.82292 L43.28524,93.47683 L42.80165,93.97284 L42.71711,95.69772 L42.69452,96.23882 L42.7915,96.66726 L43.06879,96.97159 L43.20971,97.11819 L43.38222,97.44511 L43.55473,97.94112 L44.69897,98.29061 L45.88382,98.8205 L46.50945,100.0493 L47.13404,103.5441 L47.9841,105.7087 L49.79459,108.6397 L53.97371,112.2134 L52.54195,114.3103 L53.39315,115.122 L53.89818,114.9417 L55.24652,113.0477 L55.98945,113.7692 L56.11908,114.5471 L55.62079,116.6665 L56.71207,117.5571 L58.02882,119.0677 L58.78636,119.3947 L59.55642,119.4059 L60.46048,118.7747 L60.90021,117.6135 L61.86974,116.5199 L62.92715,115.5956 L65.12328,113.0026 L66.52003,111.1087 L66.69254,109.8573 L67.2731,108.4819 L66.81875,105.4268 L66.62488,102.552 L66.45464,101.3457 L66.02174,99.58705 L66.04318,97.89604 L63.50211,96.28398 L63.39279,95.81046 L63.77948,95.38202 L63.65318,94.93108 L62.70509,94.5591 L62.48978,94.36741 L62.98693,93.5219 L62.38492,93.07097 L62.01512,93.07097 L61.17749,93.04848 L61.19666,92.29312 L61.35001,91.52647 L62.20794,91.8196 L63.24286,92.51859 L65.05221,93.02589 L66.28213,93.49941 L66.60685,93.11604 L69.0611,93.98413 L70.16253,94.10815 L70.3564,93.78124 L70.9156,93.82632 L71.13092,94.38999 L73.90874,95.22421 L74.34165,95.5737 L77.29533,97.15198 L81.92425,93.72488 L82.35602,93.46554 L83.8655,90.80499 L83.75618,89.17035 L84.05946,88.31355 L84.31425,86.49851 L84.59608,85.76575 L84.74707,85.76575 L85.43703,83.53355 L85.32772,82.73312 L85.73804,81.245 L86.88342,79.63293 L88.41101,75.85625 L88.36707,74.95438 L87.95667,74.71762 L87.35466,74.64996 L86.9263,74.26669 L86.64446,73.5565 L86.64446,72.66582 L86.86092,72.04579 L87.33662,71.76395 L87.39754,70.91845 L87.47308,69.98279 L87.55535,69.68967 z" stroke="#000000" stroke-width="0.24" fill-opacity="0" />
</svg>