<?xml version="1.0" encoding="UTF-8" standalone="no"?>
<!DOCTYPE svg PUBLIC "-//W3C//DTD SVG 1.1//EN" "http://www.w3.org/Graphics/SVG/1.1/DTD/svg11.dtd">
<svg width="120pt" height="120pt" viewBox="0 0 120 120" overflow="visible" version="1.1" xmlns="http://www.w3.org/2000/svg">
  <path d="M71.60759,36.06736 L71.78678,33.73232 L73.46642,30.2294 L65.19511,33.9115 L62.6983,31.21738 L69.85613,22.686 L73.46642,20.26171 L74.66079,14.06467 L74.34634,10.11343 L74.1037,5.353395 L73.78994,0.9531362 L68.17649,0.5940594 L67.29658,3.019048 L63.19265,4.725185 L58.10073,7.240118 L54.84115,11.46049 L51.58087,17.3877 L50.45832,23.94381 L51.82351,26.00903 L50.03579,27.08695 L49.40759,36.33649 L50.53014,48.28085 L45.78823,55.73431 L45.33921,64.35564 L49.4794,70.55267 L49.65022,84.92062 L49.89216,95.33873 L49.02132,103.6902 L51.40098,111.7726 L52.52353,116.3527 L52.6316,119.4059 L54.06861,119.316 L54.45488,114.8258 L56.69998,111.0544 L61.44119,95.96764 L63.82155,100.0981 L68.49094,99.37991 L69.36249,96.14683 L65.05148,90.84853 L65.36593,81.23922 L70.07158,72.79708 L73.78994,63.90662 L70.07158,62.6495 L65.05148,64.08581 L66.38041,56.5424 L65.60857,52.77105 L64.80884,51.15416 z" stroke="#000000" stroke-width="0.24" fill-opacity="0" />
</svg>