<?xml version="1.0" encoding="UTF-8" standalone="no"?>
<!DOCTYPE svg PUBLIC "-//W3C//DTD SVG 1.1//EN" "http://www.w3.org/Graphics/SVG/1.1/DTD/svg11.dtd">
<svg width="120pt" height="120pt" viewBox="0 0 120 120" overflow="visible" version="1.1" xmlns="http://www.w3.org/2000/svg">
  <path d="M28.21322,119.2433 L28.6438,119.4059 L30.48733,117.9311 L31.38418,116.8575 L32.76144,115.3718 L33.93917,115.3067 L34.30895,114.6019 L34.57029,114.4934 L35.31525,113.7994 L36.62423,112.4981 L37.80305,111.9341 L38.60661,111.6847 L39.08155,111.5329 L39.39602,111.2184 L40.39053,110.0906 L41.61481,109.2338 L43.8976,107.3361 L45.14907,105.7203 L45.51777,105.3081 L45.83552,105.1455 L46.33109,105.3516 L46.78658,104.9394 L46.81689,104.3646 L46.58814,103.5948 L46.80502,103.1284 L47.23333,102.7814 L47.7539,102.1849 L47.45787,101.6753 L47.32661,102.1307 L46.85925,101.9573 L46.73775,101.5235 L47.12598,101.5018 L46.61845,100.7752 L47.26591,100.7643 L47.62155,100.6559 L48.21908,101.0138 L47.99571,101.1005 L48.02829,101.35 L48.27768,101.274 L48.54879,101.3065 L49.04874,101.4367 L48.76677,101.7404 L48.54879,102.0115 L48.86654,102.1199 L49.34586,101.8054 L49.75253,101.2524 L49.94449,100.927 L50.21122,100.9053 L51.38894,100.7101 L51.78584,100.8836 L52.02445,101.3391 L52.76941,101.6536 L52.92887,102.1307 L52.76073,102.738 L52.44736,102.9549 L52.43111,103.4755 L52.74019,103.3237 L53.35835,102.7706 L53.61531,102.044 L54.17925,101.9247 L54.78436,101.1005 L55.30595,100.1679 L55.8688,99.24609 L55.78965,99.07256 L55.0175,99.25695 L54.51755,99.20273 L54.78436,98.24837 L54.63795,98.10744 L54.05776,97.91227 L54.23996,96.89284 L54.82015,96.36148 L55.07391,95.59151 L55.66277,94.02995 L56.26898,92.94552 L56.55086,92.56596 L56.85784,92.57674 L57.16582,92.65269 L57.25473,93.14068 L57.2645,93.46601 L57.22872,94.01909 L57.48896,94.39864 L58.43355,94.82155 L58.93779,94.87577 L59.37696,94.69147 L59.82597,94.48536 L60.32154,94.55045 L60.65664,94.30106 L60.53843,94.78905 L60.63163,95.15775 L61.10885,95.26619 L61.51551,94.90836 L62.09789,94.49622 L62.65088,93.23827 L63.23975,92.99966 L63.39702,92.60932 L63.50008,91.50317 L63.53257,91.04768 L63.73102,90.55968 L64.39255,89.14992 L65.56159,85.83154 L65.75347,85.21337 L65.6223,84.48677 L65.60386,83.94455 L64.77319,83.5 L64.23527,82.24196 L64.45973,82.29618 L64.91851,82.9252 L65.24814,83.12037 L65.56159,83.0445 L66.93558,82.24196 L67.59928,81.85163 L69.15757,81.00572 L71.29722,80.07309 L71.73857,80.919 L71.95116,80.97322 L72.01835,80.66953 L72.30141,80.3442 L73.645,79.53088 L74.63623,79.54173 L74.72514,80.22489 L75.22829,79.59595 L75.87794,79.0971 L76.35179,78.45731 L77.75835,77.66562 L78.29619,77.28606 L78.93498,77.1234 L79.84159,77.34029 L80.01183,77.6982 L80.29919,77.83914 L80.451,77.82828 L80.60499,78.09939 L81.08212,77.81742 L82.00288,78.05603 L82.21758,78.4898 L82.28157,78.9453 L82.35852,79.78034 L82.18508,80.21404 L81.82069,80.53945 L81.43566,80.82142 L80.99759,80.97322 L80.09528,80.97322 L79.83393,81.14666 L79.54438,81.03831 L79.29172,81.1033 L79.53251,81.41785 L79.65611,81.75396 L79.73635,81.62388 L79.86214,81.62388 L79.9598,81.7106 L79.86003,81.92749 L79.94894,82.00343 L79.62681,82.81676 L79.61704,82.97942 L79.39258,82.99029 L79.76675,83.15295 L79.87628,83.077 L80.1127,83.26139 L80.03347,83.30476 L80.51936,83.36983 L80.65054,83.6518 L81.03556,83.58672 L81.22753,83.54337 L81.44222,83.46741 L81.83264,83.17459 L82.31196,82.84926 L82.83793,82.48057 L83.0906,82.57815 L82.99403,82.86012 L82.75112,83.08787 L82.45181,83.39147 L82.63401,83.52164 L83.00598,83.20717 L83.47335,83.06615 L83.63711,83.02278 L83.82907,83.0445 L83.81931,83.16381 L84.02643,83.14209 L84.29754,83.29389 L85.51752,83.25053 L85.96654,83.00114 L86.09771,82.70831 L86.48812,82.1986 L86.70501,81.13589 L86.98808,80.28998 L87.42833,79.53088 L88.34901,78.88022 L89.20468,78.75005 L89.7794,78.826 L90.27935,79.10796 L90.75758,79.4333 L90.85196,79.8562 L89.97027,80.59367 L89.98003,80.72375 L91.08838,80.17068 L91.34644,80.65867 L91.33128,81.27683 L91.78458,82.35049 L92.01991,82.9577 L92.05569,83.47828 L91.98733,83.80361 L92.04593,84.03136 L92.55775,84.45427 L93.2074,84.72538 L93.76149,85.14829 L94.17792,85.66887 L94.24948,86.18936 L94.29942,86.73158 L94.19855,87.38224 L94.61279,87.82687 L95.13117,88.05462 L95.38384,87.87023 L95.85121,87.77265 L96.15491,87.94617 L97.22738,87.17622 L97.36732,86.57977 L97.57334,85.58206 L97.40958,85.44112 L97.82062,84.60607 L98.94302,84.30247 L99.35727,83.6843 L99.4711,83.20717 L100.111,82.68659 L100.2259,82.25282 L100.3734,81.43949 L100.3994,80.57195 L100.3354,78.98866 L100.2844,77.91508 L99.81057,77.34029 L99.63705,76.50524 L99.67174,75.58347 L99.57415,74.91117 L99.85394,73.67485 L99.88643,72.64464 L99.6533,72.29758 L99.57845,71.82045 L99.60455,71.32159 L99.10022,70.54086 L98.79333,70.12872 L97.93774,70.24802 L97.88023,70.55164 L97.41716,70.17208 L98.13728,69.69495 L98.5266,69.00092 L98.06243,68.30682 L97.43559,68.31768 L96.90424,67.85141 L96.51922,66.73439 L95.31338,66.35484 L94.81991,66.01865 L94.68006,65.83435 L95.23634,65.6391 L95.97271,65.66082 L97.39114,65.74754 L97.53107,65.42221 L97.65038,65.04266 L97.21761,64.76069 L96.81095,64.60889 L96.72743,64.37036 L95.89356,64.26192 L96.16467,63.91487 L96.21561,63.6654 L96.1267,63.47023 L95.85778,63.24249 L95.83277,62.65691 L95.40877,62.63519 L95.00211,62.40752 L94.92296,62.19055 L94.97718,62.00625 L94.29942,61.55075 L93.92744,61.71342 L93.65086,62.01711 L93.1824,61.46403 L92.63479,61.51825 L92.30079,61.06276 L92.49056,60.34702 L91.95264,59.82652 L91.47332,59.90238 L91.04283,59.7723 L90.58514,59.86988 L90.33575,60.01082 L90.07551,60.0759 L90.05051,60.32537 L90.17848,60.57476 L90.19044,60.93267 L90.19044,61.30136 L90.05051,61.43145 L90.34662,61.65919 L90.70663,61.99539 L90.79336,62.35321 L90.60686,62.59182 L90.90727,62.81957 L90.88883,63.26421 L90.52225,63.50273 L90.10582,63.86065 L89.83471,64.43536 L89.46602,65.08602 L89.25133,65.61746 L89.46602,65.84521 L89.17757,66.17054 L89.14827,66.62595 L89.21983,66.88628 L89.02139,67.11395 L88.66676,67.4285 L89.07999,67.95985 L89.39445,68.55629 L89.50829,68.92498 L89.41938,69.131 L89.69048,69.67331 L89.594,69.97691 L89.13631,70.26974 L88.58113,70.63844 L87.90656,70.72516 L87.6778,70.38897 L87.61053,69.83598 L87.35357,69.14187 L86.9794,68.74068 L86.58141,68.71896 L86.45563,68.12252 L86.09771,67.66702 L85.50885,67.39591 L85.02742,66.89706 L84.95468,66.25726 L84.52747,65.95365 L83.98525,65.93193 L83.7868,65.4873 L83.47335,64.81491 L83.02661,64.52216 L82.87043,64.16425 L82.5733,63.68712 L82.62963,63.47023 L83.0016,63.49195 L83.41264,63.32929 L83.58727,63.18826 L84.04377,63.55695 L84.32903,63.51359 L84.29754,63.29671 L83.90064,63.12318 L83.87025,62.55933 L83.92885,62.15805 L83.88658,61.83272 L83.6718,61.64833 L83.28686,61.39895 L82.87043,61.35559 L82.50283,61.64833 L82.07445,61.99539 L81.71763,62.26649 L81.39988,62.5051 L81.20143,62.75449 L81.21777,62.97138 L81.04424,63.27507 L81.31535,63.51359 L81.44652,63.70884 L81.21777,64.03417 L80.63319,64.25106 L79.9598,64.77155 L79.12148,64.8475 L78.9599,65.29213 L78.54996,65.54152 L78.21924,66.02951 L78.26151,66.84283 L78.16502,67.53694 L78.00774,68.20924 L78.16502,68.7949 L77.90586,69.09851 L77.3799,69.19609 L77.08058,69.29375 L76.6815,69.554 L76.22381,69.82511 L75.61112,69.74917 L75.45385,69.36961 L75.62199,69.01179 L76.27913,68.56715 L76.03841,68.55629 L75.03851,68.91412 L74.69475,69.10937 L74.68288,68.81654 L74.32606,69.06601 L74.12651,69.48892 L73.81314,69.51056 L73.48452,70.24802 L73.14075,70.71438 L72.75472,71.00713 L71.63551,72.86153 L71.10744,73.54477 L70.46217,73.65321 L69.88746,73.37125 L68.96889,72.33017 L68.26948,70.93118 L68.69778,69.5865 L68.82356,68.81654 L69.31046,68.26346 L70.2095,67.73211 L70.32442,67.38506 L70.89056,65.62832 L71.93272,63.95823 L71.80584,63.19912 L71.45121,63.28585 L71.19096,63.69798 L70.53483,64.05581 L69.76385,64.11003 L68.74013,64.73905 L68.38659,65.32463 L67.93758,65.69332 L67.3845,65.15111 L66.70244,64.93422 L66.38898,64.45708 L66.46821,64.06667 L66.82065,63.71962 L66.09623,64.03417 L65.55831,64.15339 L64.77748,64.69569 L64.63763,64.57639 L64.91312,63.92573 L65.40002,63.37265 L66.23608,62.5376 L66.51914,62.26649 L68.6577,60.39037 L69.26391,60.32537 L69.60329,60.79165 L69.59572,61.0194 L69.87112,61.24714 L70.25185,61.24714 L70.40904,61.14948 L70.49257,60.99767 L70.79836,60.82415 L70.92525,61.03026 L71.15408,60.90009 L71.9717,60.28193 L72.75472,59.55541 L73.21342,59.32766 L73.43788,59.02397 L73.5214,58.4059 L73.76001,57.48413 L74.07986,57.47327 L74.22519,57.41904 L74.32606,57.27802 L74.22519,56.69244 L73.99534,56.096 L73.49538,55.58628 L73.12779,55.06579 L72.90215,54.36091 L72.99544,53.66681 L73.4585,53.11381 L73.69492,52.47393 L73.82291,51.85585 L73.75563,51.5088 L73.99534,51.24855 L74.30441,50.60867 L73.72423,49.7737 L73.23404,49.49174 L72.90652,49.79535 L72.25047,50.23998 L72.25047,51.5088 L70.98814,52.2679 L70.28006,52.21368 L69.58595,52.37635 L69.42439,52.81012 L69.02749,53.05959 L68.64684,53.15717 L68.31494,53.00537 L68.01024,52.39807 L67.68062,51.85585 L67.32809,51.25941 L67.24895,51.04244 L67.23918,50.69547 L67.506,50.98822 L67.61334,50.81478 L67.18824,50.33756 L67.05698,49.58932 L66.95949,48.07111 L66.64603,47.24693 L66.6211,46.4661 L67.68819,45.05634 L68.00594,44.69851 L68.40065,44.54662 L68.36159,44.40568 L68.11549,44.4599 L67.87469,44.43818 L67.37045,44.15629 L66.89221,44.0044 L66.44,43.77666 L66.10052,43.50555 L65.89778,43.09349 L66.09623,42.16087 L66.33694,41.3584 L66.64275,40.57758 L66.63845,40.12208 L66.48227,39.61245 L66.49313,39.07023 L66.8065,38.7774 L67.04941,38.38699 L67.05698,38.08338 L66.96378,37.80141 L67.07113,37.67125 L67.27387,37.84477 L67.45935,38.0183 L67.48428,38.1701 L67.42138,38.24604 L67.4735,38.38699 L67.60896,38.47379 L67.73046,38.43035 L67.61553,37.90985 L67.70882,37.74719 L68.28682,37.66039 L68.73036,37.30256 L69.12069,36.53259 L69.24,36.26148 L69.51329,36.10968 L69.97098,35.74099 L70.38732,34.9168 L70.23552,34.72155 L69.86683,34.51553 L69.3918,34.03839 L69.45477,33.45282 L69.79308,32.9431 L70.05332,32.46597 L70.46655,32.53096 L70.5446,32.31408 L70.47632,32.05383 L70.48061,31.761 L70.92953,31.35981 L71.41105,30.5139 L71.67567,29.46197 L71.34058,28.56192 L71.06947,28.11729 L71.04017,27.64015 L71.29722,27.22802 L70.6021,27.04371 L70.63789,26.58822 L71.42519,26.79424 L71.47184,26.27375 L71.06518,25.9267 L70.97618,25.4387 L71.18439,24.21333 L70.64437,23.62767 L70.04903,23.11803 L69.84081,22.17454 L69.28664,21.74077 L68.84419,21.75163 L68.62949,21.33949 L68.79326,20.89486 L69.19992,20.80814 L69.15108,20.56953 L68.82904,20.2442 L68.96889,19.47424 L68.90818,18.61755 L68.94287,18.238 L68.77701,17.80423 L67.58295,17.53312 L66.9887,17.67406 L66.67095,17.38131 L66.49852,17.12098 L65.74379,17.24029 L65.18962,17.40295 L64.96516,17.77164 L64.70592,17.7825 L64.45973,18.01025 L64.75694,18.42239 L64.42723,19.04046 L63.53695,19.34415 L63.17256,19.47424 L62.95778,19.99481 L62.19328,19.87551 L62.34298,20.49367 L62.4015,21.12261 L62.54143,21.59974 L62.90145,21.94679 L62.6444,22.29385 L62.6769,22.63004 L62.34298,23.30234 L61.48731,24.16988 L61.12729,24.41935 L60.7282,24.50607 L60.2717,24.37599 L60.11442,24.02894 L60.02442,23.60603 L59.85628,23.20475 L59.21976,22.66254 L59.4822,20.76478 L59.65783,20.16834 L59.47563,19.73457 L59.34446,19.22485 L58.99631,18.83444 L58.00954,17.64156 L57.67116,17.0234 L57.31325,17.1102 L56.7472,16.61135 L56.22671,15.55941 L57.39568,14.98466 L57.40326,14.81114 L56.23319,15.15817 L56.10193,14.94127 L55.54885,15.68958 L54.95031,15.34253 L54.51107,15.67872 L53.89619,15.22324 L52.38665,13.54234 L50.65476,12.10003 L50.13747,11.4819 L49.71026,10.73363 L49.53783,10.82038 L49.79917,11.76385 L48.8199,11.94821 L47.79617,11.73132 L46.67267,11.54696 L46.10225,11.27585 L46.21945,11.08065 L46.89713,10.85292 L47.2702,10.51673 L47.54678,10.00705 L47.77773,9.464825 L46.45687,9.985361 L45.91037,10.73363 L45.6316,10.96136 L45.26728,10.53842 L44.45396,10.33238 L44.37692,9.660023 L43.58961,9.05274 L42.77081,8.000823 L41.6788,7.100735 L40.93704,6.211483 L40.54882,5.571667 L40.24302,5.788554 L39.95019,5.593356 L39.90902,5.14873 L38.68356,4.704103 L37.95485,4.292019 L37.61975,4.541447 L36.634,4.096821 L35.53332,3.760638 L35.38362,3.261799 L35.13314,3.532899 L34.12128,3.446153 L33.13552,3.10997 L32.88942,2.589442 L32.69855,2.947305 L32.34721,2.372547 L31.9264,2.253259 L31.651,2.32917 L31.228,1.765264 L30.91462,1.992995 L30.60883,1.721878 L29.59706,1.580902 L29.35626,1.190506 L29.36493,0.7350357 L29.03312,0.5940594 L28.75763,0.7241914 L28.40191,0.7025027 L28.41925,0.9627751 L28.16877,1.049521 L27.72961,1.786953 L27.36521,2.589442 L27.70898,5.387305 L28.03759,8.217718 L28.5852,10.47336 L29.28797,11.94821 L31.13909,12.6531 L33.07053,12.98927 L36.04514,14.46412 L37.70429,15.11479 L39.04796,15.93897 L39.77776,16.16672 L40.44147,16.69807 L41.31121,18.01025 L41.97483,19.40915 L42.25461,20.32014 L42.17547,20.52617 L42.00961,20.68884 L42.16579,20.86236 L42.27095,21.10097 L42.06383,21.56724 L41.66584,22.34807 L41.55083,22.73848 L41.32746,23.98558 L40.92947,24.41935 L40.85251,25.15673 L40.99775,25.46043 L41.06831,25.85084 L41.26886,25.85084 L41.4673,25.95928 L41.41098,26.33883 L41.29386,26.6858 L41.18652,27.18466 L40.64968,27.49913 L40.29834,27.59679 L40.18443,27.81368 L40.19099,28.03057 L40.5228,28.63787 L40.96197,29.1475 L40.87853,29.64635 L40.29834,30.31874 L39.51751,30.9694 L38.47535,31.02362 L37.92884,30.83923 L37.4549,30.43804 L37.02441,30.44882 L36.32054,30.4814 L35.73934,30.18857 L35.24806,29.70058 L34.68522,29.62472 L34.20589,29.83074 L33.95541,29.50541 L33.60946,29.50541 L33.13552,29.40783 L32.88942,29.58127 L32.64652,29.52705 L32.3808,29.16922 L32.09992,28.82217 L31.64443,28.83303 L31.64443,28.97397 L31.49481,28.9957 L31.25401,29.25594 L30.96885,29.27766 L31.19112,29.50541 L31.41996,29.83074 L31.14886,30.83923 L31.06643,31.66342 L31.15104,32.03211 L31.41996,32.02133 L31.67701,32.11891 L32.08368,32.60691 L32.15633,32.87802 L32.05757,33.08404 L31.86889,33.30093 L31.73334,34.17934 L32.01101,34.21192 L31.90577,34.9168 L32.3808,35.61082 L32.52822,36.06632 L32.85465,36.38079 L33.46523,36.97723 L34.26879,37.22661 L34.94008,37.60616 L35.17212,38.24604 L36.00287,38.91834 L36.53094,39.60159 L36.82378,40.34983 L37.21848,40.91377 L37.45928,41.58615 L37.58288,44.82859 L37.79109,47.25779 L37.87563,48.21206 L38.00579,48.37472 L38.64668,49.17727 L40.4339,50.53281 L41.50418,51.6606 L42.03562,52.22454 L42.58213,52.51729 L42.77081,52.88606 L43.45406,52.94028 L43.62649,53.23303 L44.19043,53.52586 L44.59709,53.69939 L44.60138,53.90541 L44.72827,54.00299 L44.88664,53.9705 L44.9289,54.23074 L45.67715,54.54521 L46.30937,55.38026 L46.54149,55.68395 L46.99042,57.1913 L47.21489,57.9504 L47.23551,58.73122 L47.13465,59.15414 L46.88956,60.18435 L46.38422,61.38809 L45.8095,62.21227 L45.31713,62.11469 L45.2933,62.16891 L45.25314,62.24477 L45.56651,62.54847 L45.73793,63.1449 L45.82684,63.64376 L45.77481,64.11003 L45.95701,65.04266 L46.25414,65.07524 L46.24218,65.30291 L45.86372,65.56324 L46.06646,65.98615 L45.72059,66.02951 L45.6598,66.17054 L45.8095,66.35484 L45.87997,66.66931 L45.63926,67.34169 L45.57089,67.62366 L45.54159,67.75383 L45.39307,68.11166 L45.51777,68.44785 L45.51777,68.8274 L45.69129,69.18523 L45.58495,69.5865 L45.57628,70.33475 L45.88427,71.82045 L46.10662,72.73145 L46.51548,73.52305 L46.6022,74.00018 L46.45687,74.43395 L45.92662,75.09547 L45.40604,75.42081 L45.28463,75.78958 L44.87249,76.16913 L44.58514,76.89565 L44.56889,77.70898 L43.41937,78.81513 L42.94223,79.27063 L42.85543,80.17068 L42.66136,81.08167 L42.28829,81.82991 L42.21782,81.98171 L42.16579,83.25053 L42.34361,84.22652 L42.62011,84.8121 L42.2243,86.52555 L41.52591,87.98954 L41.18652,88.73786 L40.60195,89.31258 L40.41327,89.47524 L39.48502,90.25607 L38.1544,91.25378 L37.40498,92.88043 L37.00597,94.52872 L36.82049,95.22282 L36.21109,95.6891 L34.8414,96.82775 L34.30895,97.27238 L34.47271,97.38083 L34.53342,97.53272 L34.42607,98.34605 L33.26678,99.50634 L32.41768,100.4607 L31.96218,100.9595 L31.18135,101.2849 L30.75844,101.6969 L30.26716,101.968 L29.72065,102.1416 L29.1621,102.1416 L28.44425,102.1307 L27.72413,101.7946 L27.36521,101.8162 L27.06808,101.9573 L26.76448,102.3151 L26.43696,102.456 L26.05631,102.1741 L26.04655,101.9138 L26.04006,101.6644 L25.85786,101.2089 L25.56074,100.9053 L25.16267,100.6884 L24.91547,100.3089 L24.77343,100.0594 L24.57709,99.91847 L24.20949,100.0703 L23.85705,100.3089 L23.33327,100.862 L23.53172,101.4693 L22.94286,102.4778 L22.83332,103.2802 L22.18047,103.5188 L23.06865,104.4948 L23.3864,104.7226 L23.5068,105.0696 L23.57399,105.4383 L23.5068,105.807 L23.09467,106.3276 L22.3865,106.3818 L22.14579,106.4794 L21.78139,106.9023 L21.84209,107.3252 L21.91694,107.6614 L22.04492,108.3013 L21.66217,108.8651 L21.06135,109.1471 L21.00604,109.8411 L20.73164,110.2533 L20.82822,110.3726 L20.94643,110.5026 L21.23917,110.34 L21.5949,110.5894 L21.866,111.4679 L21.70662,111.8582 L21.49403,112.1944 L21.37043,112.4221 L20.49851,112.78 L20.21763,113.2246 L19.60057,113.5499 L19.89778,113.7777 L19.85113,113.897 L19.73183,113.9078 L19.79472,114.0271 L19.62229,114.2006 L19.93027,114.2765 L20.26428,114.3199 L20.32827,114.4501 L20.82822,114.3632 L21.34223,114.2114 L21.57318,114.3741 L21.79115,114.5476 L22.17618,114.7971 L22.58714,114.9814 L22.67605,115.3501 L22.51995,115.7189 L22.8702,115.6863 L23.13264,115.6538 L23.56422,115.914 L23.81041,116.0008 L23.94268,116.2285 L23.98065,116.3587 L24.09019,116.7599 L23.62821,117.2262 L23.78868,117.378 L24.1748,117.1395 L24.70077,117.5733 L24.70077,117.8552 L24.83085,118.0504 L24.2377,118.2022 L24.43834,118.2673 L25.02282,118.3649 L25.24299,118.5601 L25.4837,118.636 L25.72879,118.6252 L26.08881,118.8421 L26.27539,119.0264 L26.50962,119.124 L26.67119,119.1132 L26.73408,119.0264 L26.9705,119.0155 L27.42053,118.9179 L27.88141,118.8421 L27.96603,119.1132 z" stroke="#000000" stroke-width="0.24" fill-opacity="0" />
</svg>