<?xml version="1.0" encoding="UTF-8" standalone="no"?>
<!DOCTYPE svg PUBLIC "-//W3C//DTD SVG 1.1//EN" "http://www.w3.org/Graphics/SVG/1.1/DTD/svg11.dtd">
<svg width="120pt" height="120pt" viewBox="0 0 120 120" overflow="visible" version="1.1" xmlns="http://www.w3.org/2000/svg">
  <path d="M115.1837,43.36886 L114.6217,41.7876 L114.725,40.75084 L113.7403,38.86564 L114.05,37.50442 L114.3504,36.62242 L114.3504,36.09658 L114.0116,36.08353 L113.637,36.13201 L113.5986,34.98896 L113.6827,33.2809 L113.308,32.95458 L113.1566,31.13092 L113.637,29.46202 L113.8509,28.83362 L114.5376,28.21641 L115.4744,28.11199 L115.6521,27.69057 L116.4422,27.06963 L116.2718,26.28273 L115.7482,26.00116 L115.9162,25.48465 L116.1325,25.02407 L116.6104,24.80031 L117.2011,24.11596 L117.3044,23.80643 L117.5567,23.21532 L117.0042,23.0475 L116.5455,23.26194 L116.2358,23.03818 L116.3557,22.65405 L116.3654,22.39859 L115.6809,22.1077 L115.0709,22.84052 L114.7442,22.68948 L114.6866,22.40791 L114.5833,22.09838 L114.7515,21.87275 L114.8283,21.58186 L114.8091,21.17908 L114.7994,20.89752 L114.8548,20.61595 L115.1188,20.52085 L115.2318,20.34557 L115.5416,20.29709 L115.5585,20.14791 L115.7937,19.99687 L115.7001,19.57172 L115.6906,18.7121 L115.5585,18.57039 L115.4191,18.55174 L115.3711,18.41935 L115.2965,18.40257 L115.2678,18.3373 L115.1837,18.36341 L114.9124,18.57971 L114.7994,18.48647 L114.5473,18.48647 L114.5184,18.35408 L114.1341,18.2795 L113.673,18.47715 L113.0725,18.41189 L112.9045,18.30933 L112.7533,18.35408 L112.6979,18.31866 L112.65,18.22169 L112.5754,18.22169 L112.5202,18.2795 L112.3977,18.11167 L112.2297,18.18626 L112.1816,18.27017 L111.9485,18.22169 L111.939,18.15083 L111.8068,18.20491 L111.6388,18.21423 L111.6388,18.10235 L111.5355,18.05387 L111.449,18.0259 L111.2905,17.85808 L110.9807,17.47022 L110.4187,17.38818 L110.4739,17.25765 L110.2865,17.03388 L110.0152,17.01524 L109.6117,17.10847 L109.5276,16.95743 L109.4508,16.88284 L109.2635,16.94997 L109.1241,16.82504 L108.9536,16.94065 L108.8335,16.62925 L108.7567,16.66654 L108.5885,16.50804 L108.1563,16.59195 L107.9594,16.3943 L107.8296,16.4521 L107.7071,16.64976 L107.2003,16.4521 L106.8616,16.3943 L106.6839,16.28242 L106.4583,16.36633 L106.206,16.16867 L105.8963,16.22461 L105.6056,16.10341 L104.9403,16.06611 L103.5593,16.72062 L103.139,17.04321 L102.6586,16.83623 L101.345,17.01524 L101.196,17.14577 L100.3889,17.19238 L100.1271,17.28562 L100.0335,17.46276 L99.93022,17.52989 L98.21303,17.34342 L97.40599,17.46276 L96.98327,17.62126 L96.66385,17.58583 L94.31975,18.60022 L94.22614,18.91908 L94.07491,19.01232 L94.05571,19.29389 L93.86831,19.38712 L93.2317,19.56426 L92.80917,19.9428 L92.64825,20.34557 L92.44164,20.67189 L92.00213,20.61595 L91.60812,20.5973 L91.25999,20.64578 L90.91409,20.73902 L90.58515,20.88819 L90.26555,21.08585 L89.98473,21.36555 L89.78763,21.65644 L89.61962,21.97344 L89.51631,22.22144 L89.43949,22.56641 L89.41301,22.84052 L88.72849,23.02512 L88.62518,22.92257 L88.57726,22.79204 L88.37065,22.80323 L88.02475,22.90578 L87.89273,22.99902 L87.70533,22.38927 L86.20426,22.68948 L84.60958,22.81255 L84.52548,22.88714 L84.50627,22.98037 L84.55196,23.05682 L84.54226,23.15006 L84.61909,23.15006 L86.28835,23.19667 L86.30756,23.33839 L86.11065,23.38314 L85.95924,23.32534 L85.81044,23.45027 L85.60383,23.41298 L85.50053,23.63861 L85.33009,23.92017 L85.17159,24.01341 L85.02261,23.88102 L84.90979,24.00408 L84.06435,24.0507 L83.59593,24.27446 L83.42793,24.22598 L82.78909,24.02273 L81.90765,23.48757 L79.47703,23.56215 L78.93179,22.99902 L77.39473,23.46705 L77.15941,23.52299 L76.36189,23.80643 L76.02325,23.80643 L75.71596,23.85491 L75.55485,23.5547 L75.79035,23.42976 L75.53564,22.68016 L73.99858,23.25448 L74.27007,24.12342 L73.91448,24.35838 L73.63123,24.88422 L73.35004,24.91405 L70.94833,25.66366 L70.91233,25.98252 L70.3671,26.19882 L70.07658,26.44309 L69.45695,26.76009 L69.47615,26.96707 L69.78606,27.18338 L70.04768,27.22253 L70.48961,26.76941 L70.91233,26.58295 L71.81298,26.4692 L72.10368,26.92045 L72.29089,28.56138 L72.2165,30.54354 L71.68096,32.41009 L71.44563,33.45245 L71.57765,34.11628 L71.42643,34.68874 L71.75536,35.7311 L71.55845,37.50442 L71.45515,38.66798 L71.26793,39.08567 L70.91961,40.63523 L69.55055,41.67013 L68.21767,42.07104 L67.22324,41.71674 L66.69963,40.84221 L66.11617,39.48285 L65.16985,37.56782 L64.43721,36.71566 L63.33014,35.77585 L63.12354,35.27052 L63.22684,34.7913 L62.81363,34.64399 L62.55182,34.258 L62.65513,33.87201 L62.4198,33.1224 L62.71275,32.33178 L62.98425,31.81899 L63.62066,31.43113 L64.27871,30.72815 L64.48532,29.95244 L64.48532,29.20097 L64.03387,28.42899 L63.74317,27.27661 L63.90409,26.76009 L64.24999,25.0912 L63.51736,24.57468 L63.32045,24.09732 L62.98425,23.96493 L62.50632,23.78778 L62.57103,23.47451 L62.48712,23.18735 L62.20611,23.28991 L61.9706,22.99902 L61.92268,22.68016 L61.55757,22.4825 L61.22864,22.45639 L61.11564,22.24009 L60.67614,22.1077 L60.50794,22.39859 L59.82117,22.21212 L59.64328,21.92123 L59.18457,21.9492 L58.74264,22.2289 L58.28393,22.31468 L57.65479,22.31468 L56.95105,22.30536 L56.99897,22.60557 L56.74444,23.01953 L56.64133,23.5808 L56.25683,23.84559 L57.00867,25.35598 L57.24176,25.25156 L57.44818,25.23105 L57.6091,25.6562 L57.38329,25.93777 L57.49628,26.16899 L56.92215,26.47666 L56.30494,25.91725 L55.8149,25.75689 L55.6853,25.59839 L55.14007,25.10984 L54.49414,24.91405 L52.45734,24.95135 L51.26599,24.98864 L51.08847,24.584 L50.67526,24.57468 L50.46884,24.89354 L50.18764,25.08187 L49.8203,25.42125 L49.24859,25.41006 L48.75146,26.07575 L48.02852,26.4058 L47.7188,27.00623 L47.32479,27.10879 L46.75327,27.36052 L46.43384,27.69057 L45.7109,28.10267 L44.60365,29.20097 L43.422,30.72069 L42.53106,31.80966 L41.63992,33.10376 L40.75848,33.98203 L39.98986,34.49109 L38.7601,35.03557 L38.60887,34.57499 L38.40245,34.63094 L38.25346,34.13306 L38.88261,33.93727 L38.75059,33.4972 L37.22061,33.96524 L37.35282,34.38853 L37.97245,34.20019 L38.13095,34.71671 L37.96294,34.77265 L38.15967,35.28917 L36.45218,35.83179 L35.69325,36.54783 L35.11911,36.8667 L34.58599,37.64613 L33.16902,39.29452 L33.0081,39.82222 L30.68321,42.30785 L29.84727,42.92693 L28.51439,42.51297 L28.29827,42.43652 L28.11087,42.38244 L23.91738,41.15361 L22.22909,41.86779 L20.75673,42.47567 L20.08899,43.12272 L19.05875,44.27696 L18.30691,44.83077 L17.28375,44.66295 L16.50562,44.97995 L15.06217,45.47782 L14.05822,46.27404 L13.33528,47.18401 L13.26088,48.22823 L13.12886,49.95493 L13.8324,51.277 L12.49953,52.72026 L10.99845,55.29726 L10.57573,56.69764 L10.67176,57.58896 L11.13047,57.92833 L11.45008,58.37026 L11.58919,58.93153 L11.44038,59.29701 L13.01586,60.44939 L12.96066,61.24934 L12.56684,62.41291 L12.02161,62.86416 L11.64699,62.44088 L6.223736,67.24431 L6.965881,68.05917 L5.781805,70.13271 L5.491287,70.97928 L4.871651,71.68227 L4.319144,73.54881 L3.183177,77.74249 L2.986266,77.98677 L2.63067,79.03659 L2.592258,79.73026 L1.982319,81.69376 L1.82382,81.66393 L1.458715,82.42286 L0.968675,83.2601 L0.632472,84.51504 L0.5940594,85.34109 L0.8847641,86.07205 L1.5044,86.75826 L2.414553,87.64025 L3.276784,88.23136 L4.170342,88.73669 L4.957986,88.94367 L5.942727,89.00147 L6.110922,88.85976 L6.485538,88.70872 L6.776242,89.02758 L6.862764,89.00147 L9.048177,83.91461 L9.37487,84.05633 L9.581477,84.49825 L9.958517,84.65675 L12.28341,85.56672 L12.63155,85.91355 L12.79004,86.56806 L12.77326,87.10509 L12.51873,87.54702 L12.02161,88.08218 L11.7117,88.10829 L11.47637,88.3824 L11.33708,88.34324 L11.24347,88.47377 L11.09206,88.60616 L11.07528,88.83179 L11.27946,88.96977 L11.45008,89.00147 L12.35072,89.58326 L12.56684,89.36695 L12.93195,89.3483 L13.30656,89.12268 L13.6644,88.55955 L14.26482,88.73669 L14.62023,87.66822 L16.83474,88.71804 L17.37027,88.5409 L18.36452,89.01826 L18.68171,89.64852 L19.28214,90.09978 L17.22856,92.59473 L15.23987,91.31741 L13.82289,90.83819 L13.10965,90.94261 L12.82864,91.00788 L12.79974,91.15892 L12.1057,91.30064 L12.05032,91.47591 L12.03112,91.78732 L12.09601,92.35978 L12.76375,92.63016 L12.77326,93.02547 L12.95115,94.08648 L13.26088,94.67385 L13.18405,95.07103 L13.52268,95.27428 L13.80369,96.23273 L14.05113,96.60381 L13.45779,96.72128 L13.51317,96.96555 L14.188,96.82943 L14.25531,97.08862 L13.9262,97.41494 L14.17122,97.92213 L13.93571,99.45118 L13.40017,100.391 L13.48427,101.2245 L13.97412,101.7037 L14.59152,102.1158 L14.35843,103.2999 L14.98534,103.7773 L15.74669,103.2123 L16.49611,103.6001 L16.69302,103.9339 L17.10605,103.9096 L17.81929,103.8332 L18.74884,103.1283 L20.1563,102.3601 L20.68942,102.5018 L21.77989,102.2836 L23.02643,101.5918 L23.17765,100.8404 L23.39153,100.4824 L23.73016,99.76072 L25.08225,99.32998 L26.41289,98.66428 L26.66742,98.32491 L26.98684,98.53002 L27.03252,98.69225 L27.25834,98.87126 L27.83956,99.12299 L28.67531,99.34863 L30.6543,99.38405 L30.96421,99.60222 L31.91036,99.51644 L32.70788,99.26471 L32.72709,98.97382 L32.8951,98.63445 L33.31782,98.50578 L33.59883,98.06385 L33.99284,97.65922 L34.38908,97.27509 L35.17691,97.27509 L35.97425,97.22847 L36.65878,96.91148 L37.08132,96.42107 L37.32392,96.12831 L37.56894,95.99032 L37.67224,95.6323 L37.84044,95.40668 L37.84044,95.06171 L37.67224,94.88084 L37.1367,94.59367 L36.66829,94.51536 L36.67799,94.217 L36.24557,94.17785 L35.65483,93.81237 L35.35443,93.39281 L35.22241,92.70847 L34.98951,92.16212 L35.30651,92.20874 L36.16147,92.15279 L36.36808,92.16212 L36.98771,92.07635 L37.41771,91.87123 L37.41771,91.7407 L37.2111,91.62509 L36.99498,91.48711 L37.07181,91.02466 L36.91089,90.82887 L36.37777,90.42423 L35.85175,90.02332 L35.74844,89.69514 L35.34492,89.50681 L34.38908,89.40238 L34.07917,89.22337 L33.85355,88.8896 L33.44033,88.18475 L33.08492,87.37547 L32.99131,86.61654 L33.15932,85.96763 L33.45954,85.17141 L34.19199,84.22414 L34.87651,83.75611 L35.40012,83.56591 L35.92615,83.43725 L36.53627,83.72814 L37.27842,84.25398 L37.45612,84.79847 L37.54022,85.2087 L37.93404,85.6208 L38.53447,85.69911 L39.36071,85.69911 L40.17726,85.45484 L40.90747,85.28702 L41.3205,85.3989 L42.29797,85.64131 L43.39552,85.5201 L43.57341,85.33177 L44.39947,85.09869 L44.79348,85.0502 L44.64207,84.71269 L44.65176,84.5542 L44.73586,84.18872 L44.83898,83.84934 L45.76852,84.06565 L46.11442,83.97055 L46.34975,83.72814 L46.87577,83.71695 L47.4762,83.53049 L47.35369,83.24892 L47.6444,83.06991 L47.86033,82.71375 L48.47046,82.46202 L48.86428,82.7902 L49.5585,83.06991 L50.01721,83.06245 L50.08434,82.61119 L50.42073,82.80698 L51.12446,83.48573 L51.13397,83.8885 L51.54719,84.30247 L52.28915,84.5542 L52.90654,84.46656 L53.38689,84.68659 L53.86481,85.06139 L54.76545,85.2087 L55.38509,84.96629 L55.9471,84.90289 L56.61242,85.00359 L57.15766,85.16395 L57.54178,84.89171 L58.19032,84.51504 L58.63952,83.95377 L58.93974,83.3235 L59.26867,83.19484 L59.67219,83.11839 L60.84414,82.83682 L61.24785,82.25504 L61.31255,81.66393 L61.78339,80.89568 L62.0836,80.59547 L62.2421,79.89994 L62.07391,79.89248 L61.9995,79.56243 L62.2421,79.26968 L62.43901,78.69908 L62.73922,78.32428 L63.07785,78.64314 L63.39727,78.45667 L63.88489,78.55923 L64.16589,78.49397 L64.40122,78.13595 L64.12749,77.62875 L64.47562,77.49822 L64.68223,77.16817 L65.02813,76.92577 L65.08575,76.5118 L64.91513,76.29736 L64.59813,76.03444 L64.76633,76.00647 L64.90804,75.77338 L64.85043,75.56454 L65.05685,75.33146 L64.79504,74.94733 L65.34755,74.51099 L65.77997,74.10076 L66.27709,74.32639 L66.53871,74.44013 L66.87753,74.76646 L67.23293,75.18228 L67.76847,75.04989 L67.90068,75.33146 L68.14309,75.4825 L69.12783,75.79203 L70.71542,76.40925 L71.29665,76.33466 L71.53925,75.98037 L71.74585,75.74355 L72.01958,75.77338 L72.52398,75.60184 L72.62002,75.06667 L72.30059,74.84291 L72.14918,74.48862 L71.89707,73.93294 L71.81298,73.68121 L72.00038,73.35116 L71.91628,72.82532 L72.00038,72.04774 L71.53925,71.45663 L71.70967,71.25712 L70.75141,70.91029 L70.50882,70.02083 L70.12227,69.853 L69.50487,69.31784 L69.46645,68.90388 L69.16643,68.56824 L69.05343,67.75896 L68.89493,67.54453 L68.62119,67.51656 L68.51062,67.731 L68.25609,67.48858 L68.04948,67.52588 L67.62675,67.08581 L67.49716,67.16972 L67.30976,67.27415 L67.10315,66.88815 L66.88703,66.42757 L66.58682,66.85832 L66.2122,66.58607 L66.05128,66.40707 L66.21947,65.81783 L66.53871,64.84259 L67.07443,64.09113 L66.98064,63.57647 L66.99034,61.75467 L68.90444,60.48109 L69.18563,59.22243 L70.4801,57.09855 L70.61212,55.71309 L71.61607,55.59934 L73.06921,55.797 L73.16283,56.69764 L72.69441,58.07937 L72.81693,59.61588 L73.61445,59.24853 L72.92023,60.78876 L73.33083,61.41716 L73.22044,62.69261 L73.78246,63.03198 L74.37319,63.48323 L75.13231,63.45153 L75.32195,63.27626 L75.01203,63.15132 L75.20913,62.69261 L74.87051,62.29916 L75.48045,62.16863 L76.27779,62.51546 L77.04641,62.09218 L77.30094,62.15744 L78.19207,62.42223 L78.68919,62.67583 L79.21523,63.02266 L81.43681,63.59325 L82.41428,64.4939 L83.48312,65.23604 L84.90979,65.66865 L85.58463,65.34978 L87.81833,65.75256 L88.17374,65.44302 L88.79337,65.62949 L89.82604,65.24536 L90.70766,64.3354 L90.96928,64.44914 L91.73063,64.07434 L91.89883,64.09113 L92.08623,63.95873 L92.20874,64.09113 L92.49925,64.1769 L93.54889,64.03518 L93.8491,63.83939 L94.81687,64.35218 L96.16672,63.74429 L98.82297,62.33832 L98.93597,62.00827 L99.25297,62.05489 L100.5306,61.04982 L100.7732,59.58791 L101.4026,58.04021 L101.9933,57.76983 L103.0357,56.94378 L103.4752,55.74292 L104.5727,55.46135 L105.2766,54.90754 L105.9804,54.77701 L107.0587,54.88703 L108.2236,54.89635 L108.8335,55.09401 L109.5636,54.96348 L110.69,54.4451 L111.3386,54.61665 L111.9101,54.6353 L112.4361,54.16726 L112.3977,53.79619 L111.9006,53.24424 L112.0134,52.51515 L112.3593,52.31749 L112.6427,52.48531 L114.1798,52.86198 L114.8835,52.21493 L114.3672,51.42617 L114.7058,50.16005 L114.6577,48.29163 L116.2069,45.41256 L115.9619,44.89604 L115.0349,44.04201 z" stroke="#000000" stroke-width="0.24" fill-opacity="0" />
  <path d="M115.765,29.30352 L115.7842,29.72681 L115.4936,29.83869 L115.6906,30.36267 L116.1036,30.37945 L116.7329,30.63491 L117.5662,30.50438 L118.8152,29.91328 L119.4059,29.24945 L118.928,29.02382 L118.4022,28.87092 L117.3428,28.22573 L116.4422,28.48679 L115.8034,28.89143 z" stroke="#000000" stroke-width="0.24" fill-opacity="0" />
  <path d="M11.26063,91.12535 L11.28878,91.84885 L10.5017,91.87868 L10.47354,91.15705 z" stroke="#000000" stroke-width="0.24" fill-opacity="0" />
</svg>