<?xml version="1.0" encoding="UTF-8" standalone="no"?>
<!DOCTYPE svg PUBLIC "-//W3C//DTD SVG 1.1//EN" "http://www.w3.org/Graphics/SVG/1.1/DTD/svg11.dtd">
<svg width="120pt" height="120pt" viewBox="0 0 120 120" overflow="visible" version="1.1" xmlns="http://www.w3.org/2000/svg">
  <path d="M13.88609,39.64457 L6.832087,40.69289 L5.542426,40.13705 L1.278432,41.74939 L0.5940594,46.75804 L3.199743,52.51461 L7.568977,56.42385 L12.67531,58.27528 L15.51783,60.13487 L17.75507,58.96394 L20.28188,59.08451 L20.65052,58.08932 L20.5978,56.2992 L22.49296,55.36327 L26.09894,58.96394 L25.17752,60.01226 L25.91461,61.44068 L28.12569,60.68866 L34.46876,66.20206 L34.83741,67.38117 L32.73157,70.5997 L31.36303,73.63227 L28.25709,74.68264 L28.94147,76.17441 L31.81056,75.17717 L32.36312,80.50256 L31.59987,83.34917 L37.81154,85.88927 L49.86663,90.03351 L54.76227,90.53825 L58.34189,91.27801 L62.55317,88.86258 L64.15875,85.58274 L70.47566,83.47383 L76.87165,84.77964 L83.16219,86.32249 L91.2165,86.93758 L97.84913,86.50641 L99.13899,85.21082 L102.6134,84.84299 L104.4822,85.83 L105.7191,86.26118 L109.7988,86.62698 L114.4314,85.76665 L117.5371,86.32249 L119.4059,84.46085 L118.3268,82.05563 L116.4843,80.07138 L116.5371,73.94289 L116.1686,68.18427 L113.9575,65.09244 L113.089,62.24378 L107.6406,57.7787 L100.1391,55.30196 L94.92772,53.45054 L87.87372,52.27143 L83.60973,50.35666 L74.18688,52.3307 L64.84292,53.14401 L60.39481,51.89951 L60.07888,51.91791 L53.34081,51.8566 L50.73512,51.65225 L47.81351,53.01731 L43.99705,56.79168 L41.33864,60.93797 L41.94393,64.72051 L38.46955,65.83014 L36.31119,65.95275 L24.17742,54.68687 L23.49305,52.89675 L25.59889,50.35666 L27.3886,45.09258 L19.15018,39.02538 L17.30775,37.96889 z" stroke="#000000" stroke-width="0.24" fill-opacity="0" />
  <path d="M68.58051,28.72199 L66.71172,31.20282 L70.13358,38.31628 L73.21294,37.39058 L71.66008,32.43505 z" stroke="#000000" stroke-width="0.24" fill-opacity="0" />
</svg>