<?xml version="1.0" encoding="UTF-8" standalone="no"?>
<!DOCTYPE svg PUBLIC "-//W3C//DTD SVG 1.1//EN" "http://www.w3.org/Graphics/SVG/1.1/DTD/svg11.dtd">
<svg width="120pt" height="120pt" viewBox="0 0 120 120" overflow="visible" version="1.1" xmlns="http://www.w3.org/2000/svg">
  <path d="M103.0633,53.74858 L101.5744,54.03756 L99.54044,53.55989 L98.069,52.68953 L97.0159,51.27691 L97.16261,49.5311 L96.28018,47.92298 L93.99652,46.25537 L91.23553,45.78279 L88.66067,45.6893 L87.61624,45.07563 L87.69291,43.89589 L87.30108,42.29458 L86.79536,41.71491 L84.6737,42.49857 L83.32261,38.99505 L80.91196,36.75117 L81.62151,32.93997 L82.03085,31.61574 L79.54371,31.37435 L78.14893,29.18486 L76.25064,28.4471 L77.8664,25.98393 L79.7822,25.67115 L83.07527,19.92375 L83.48699,17.28889 L83.05776,15.44108 L77.56654,14.08965 L75.5411,16.38283 L73.46992,19.59736 L72.41887,19.50217 L71.23013,19.22848 L70.86209,17.59317 L70.01485,15.89496 L69.40833,13.46579 L66.70428,11.09441 L64.49065,10.85642 L61.48011,11.60948 L59.70013,8.855627 L56.23623,8.248758 L54.79997,6.904129 L52.54249,5.817886 L51.39522,2.389165 L48.26637,1.704101 L45.23831,0.5940594 L41.97805,1.029237 L39.49958,2.236173 L36.44518,4.570151 L36.49788,5.5442 L29.92925,13.57628 L27.3544,23.87264 L24.55618,24.13953 L23.92347,22.7779 L20.35009,21.12898 L17.05719,23.10428 L13.78163,22.40392 L12.74604,23.65845 L9.076446,24.13103 L6.68977,27.87763 L5.211868,31.08366 L2.902029,32.43679 L0.8657052,33.26635 L0.8481961,34.71127 L1.592587,36.129 L3.773403,36.65767 L6.580296,36.33639 L10.62438,35.69382 L12.80503,35.88081 L13.29342,36.95006 L15.33841,37.72182 L17.99639,43.89589 L16.59515,44.67275 L15.56824,45.78279 L17.32203,46.03438 L19.26197,47.14442 L20.65675,48.07767 L20.13556,49.4291 L18.0994,50.73803 L18.60513,51.94497 L23.24027,59.66597 L22.43673,64.02624 L22.71925,66.87699 L33.21348,87.11103 L33.17846,89.37022 L37.65178,91.08202 L41.72205,95.85368 L43.81736,96.32115 L45.93018,98.20635 L47.68398,99.09541 L48.06934,99.91646 L53.28705,104.3464 L54.89398,104.5521 L55.16783,103.3299 L56.15956,104.0217 L55.1765,105.261 L56.18591,105.9375 L55.1765,107.4267 L56.39177,108.2562 L57.39897,106.7654 L58.13452,106.2877 L61.80412,105.9375 L62.97552,106.5206 L63.91711,107.1275 L65.8154,107.1445 L66.18326,109.6757 L69.09962,110.1108 L75.30906,113.2676 L78.08093,118.0749 L80.1414,118.6393 L83.5198,117.2947 L86.38585,116.2271 L89.68758,117.3474 L91.15682,117.0652 L91.81587,117.9287 L98.94054,119.4059 L99.58208,117.1502 L99.94111,116.6113 L103.9961,116.5433 L105.7477,115.7902 L107.554,114.1991 L111.2389,109.2388 L112.6928,107.2482 L113.1549,105.6469 L111.8214,103.7056 L109.829,101.5416 L112.5986,98.75372 L114.4378,96.71723 L114.3611,95.46099 L112.6425,95.3063 L109.9735,95.74318 L109.3406,94.45975 L109.4261,92.43345 L112.4542,91.66339 L114.7793,90.20827 L116.4653,88.83134 L117.987,86.32567 L119.1518,83.8115 L116.8681,81.22934 L116.0296,79.75722 L116.4741,78.61147 L114.3349,79.05685 L111.7688,77.05606 L110.3675,74.86657 L108.8107,73.02727 L108.0839,71.95632 L104.0989,71.37666 L102.3014,71.03497 L101.3182,70.04733 L103.8582,66.17663 L105.4148,66.32112 L107.3044,67.00618 L107.3986,66.37382 L106.7746,65.50006 L104.7821,65.15838 L105.5615,63.36327 L106.4331,60.9851 L105.5615,57.65667 L105.1236,54.57813 L105.382,50.95222 L104.4734,50.42015 z" stroke="#000000" stroke-width="0.24" fill-opacity="0" />
</svg>