<?xml version="1.0" encoding="UTF-8" standalone="no"?>
<!DOCTYPE svg PUBLIC "-//W3C//DTD SVG 1.1//EN" "http://www.w3.org/Graphics/SVG/1.1/DTD/svg11.dtd">
<svg width="120pt" height="120pt" viewBox="0 0 120 120" overflow="visible" version="1.1" xmlns="http://www.w3.org/2000/svg">
  <path d="M54.01667,1.016954 L53.7843,1.41673 L53.22219,1.507511 L53.05511,1.791696 L52.9556,2.095052 L53.31004,2.3533 L53.03769,2.781833 L52.66656,2.857954 L52.25478,2.713606 L51.79213,2.603089 L51.42393,2.79311 L50.60109,3.181609 L50.44496,3.40828 L50.57859,3.910679 L50.03898,5.07392 L48.81089,6.455939 L48.38236,8.335845 L47.9655,9.033902 L46.56092,10.3195 L45.81212,10.88111 L45.32698,11.02545 L45.20501,11.24085 L45.25074,11.43143 L45.18246,11.69814 L44.95009,11.83741 L45.00383,12.04998 L44.87019,12.24846 L44.64865,12.33924 L44.14101,12.33924 L43.29855,12.14584 L42.60354,11.76354 L42.0421,11.21829 L41.88597,10.9888 L41.47999,10.9014 L41.42625,11.07113 L40.58379,11.38858 L39.89966,11.82275 L39.52853,11.80301 L39.23877,11.90282 L39.03758,12.05788 L38.77685,12.14077 L38.67739,12.45822 L38.35926,12.90367 L38.14138,13.2527 L38.07603,13.59834 L37.8378,14.04999 L37.65043,14.14585 L37.61919,14.31106 L37.76371,14.35617 L37.50811,16.03027 L37.59669,16.46444 L37.7354,16.52364 L37.82038,16.75313 L37.9199,17.7833 L38.21474,18.5603 L38.40504,19.17322 L38.44716,19.53352 L38.44209,20.15208 L38.12108,20.98095 L38.04773,21.1986 L38.30845,21.6869 L38.54375,22.09006 L38.60329,22.70016 L38.67158,22.79658 L38.77685,22.86142 L39.00927,23.33562 L39.17122,23.57357 L39.25038,23.88031 L39.19377,24.16901 L39.07756,24.39061 L38.85895,24.50958 L38.73112,24.51578 L38.72532,24.64829 L38.78773,24.7199 L38.72532,24.90428 L38.77685,25.02608 L38.68827,25.07682 L38.81029,25.27023 L38.81609,25.59896 L38.77104,25.8713 L38.69988,25.99366 L37.89734,26.54398 L37.64175,27.0289 L37.80368,27.16197 L37.7354,27.55667 L37.56258,27.6531 L37.23577,27.77489 L36.89006,27.73485 L36.4674,27.49127 L36.06136,27.40612 L35.80069,27.45687 L35.6445,27.6187 L35.46006,27.68411 L35.33223,27.86285 L35.33223,28.00776 L35.55953,28.08163 L35.46587,28.3083 L35.07151,28.69736 L34.62628,29.13097 L34.27985,29.30407 L34.11571,29.47774 L34.15202,29.74388 L34.30821,29.98804 L34.39318,30.37935 L34.56387,30.63422 L34.60305,30.85581 L34.55225,31.0402 L34.41935,31.28999 L34.07579,31.55105 L33.65893,31.63056 L33.45701,31.76363 L33.00023,31.98522 L32.25723,32.15833 L31.74378,32.20908 L31.11699,32.42447 L30.84758,32.66073 L30.61443,32.69682 L30.50408,32.6314 L30.45322,32.6861 L30.50408,32.78759 L30.50408,32.96408 L30.33628,33.10843 L30.41911,33.29845 L30.63191,33.51103 L30.75894,33.61083 L31.0146,33.917 L31.10538,33.97057 L31.27025,34.14931 L31.98782,34.64044 L32.05024,34.8079 L32.2115,34.90714 L32.22312,35.14509 L32.02774,35.50314 L31.57603,35.64749 L30.70233,35.75237 L30.46703,35.87698 L30.16633,35.84597 L29.98189,35.99313 L29.90853,35.98524 L29.79452,36.02471 L29.64707,36.26266 L29.40016,36.31171 L29.00066,36.26266 L28.60055,36.33709 L28.12121,36.73687 L27.94472,36.83667 L27.75515,36.8564 L27.53654,37.01259 L27.46539,36.91279 L27.28963,36.86486 L27.1618,37.09717 L27.20466,37.25054 L26.90108,37.68471 L26.66285,38.18655 L26.57206,38.23166 L26.51545,38.39968 L26.60623,38.63763 L26.7362,38.61226 L26.84734,38.71376 L27.10514,38.80453 L27.18216,38.90716 L27.17923,39.17386 L27.48281,39.4011 L27.8205,39.49752 L28.11247,39.78114 L28.52065,40.37939 L28.75087,40.55588 L29.0915,40.89082 L29.27814,41.36389 L29.44588,41.52628 L29.50836,41.65597 L29.71242,41.86065 L29.80613,42.06477 L29.93103,42.2125 L29.9877,42.45327 L30.11259,42.64667 L30.27166,42.79102 L30.19176,42.80511 L30.20337,42.85925 L30.3595,42.97258 L30.45322,42.98104 L30.41617,42.888 L30.78511,42.84797 L31.20197,42.85925 L31.68711,43.03517 L32.32551,43.51727 L32.77361,43.90295 L32.88108,44.15556 L32.92974,44.77073 L32.90945,45.24212 L32.74237,46.07324 L32.35675,46.74255 L31.85706,47.1457 L31.24702,47.46316 L30.74806,47.57988 L30.49534,47.52856 L30.3312,47.37519 L30.12133,47.32163 L30.04724,47.36166 L29.9136,47.33065 L29.88818,47.40395 L29.93684,47.43214 L29.95358,47.50037 L30.01888,47.57424 L29.98189,47.74734 L29.72984,47.90353 L29.5621,48.08228 L28.84453,48.58073 L28.41605,48.72056 L28.16914,48.70026 L27.96214,48.59257 L27.48574,48.7341 L27.37173,48.92468 L27.30705,49.0211 L27.1618,49.00644 L27.02309,49.02674 L26.98605,49.18011 L27.00347,49.25341 L27.1618,49.38704 L26.941,49.5968 L26.77325,49.62217 L26.57787,49.90918 L26.29684,50.17307 L26.21988,50.38564 L26.413,50.57792 L26.60911,50.91003 L26.69121,51.30416 L26.5808,51.56298 L26.37094,51.78175 L25.81458,51.76146 L25.57347,51.78965 L25.44564,51.90355 L25.37736,52.09018 L25.28951,52.48432 L25.46307,52.56157 L25.54516,52.27175 L25.65844,52.06199 L25.84875,52.05128 L26.21475,52.0338 L26.43262,52.07947 L26.53507,52.16462 L26.48709,52.41384 L26.52927,52.98447 L26.6033,53.40961 L26.38469,53.85506 L26.10367,54.19563 L25.72379,54.59879 L25.53936,54.68676 L25.52481,54.78036 L25.74048,54.84013 L25.76885,55.02451 L25.54516,55.25682 L25.03966,55.57145 L24.77606,55.72144 L24.65697,55.91202 L24.44998,56.11614 L24.19433,56.37439 L23.60752,56.61572 L23.13613,56.85987 L21.89643,57.21115 L21.36043,57.27036 L21.04529,57.20551 L20.76781,56.08231 L20.60006,55.4068 L20.51802,55.25118 L20.40762,55.27937 L20.4185,55.33858 L20.25143,55.47221 L19.97908,55.5145 L19.93336,55.44402 L19.85419,55.42372 L19.79465,55.47841 L19.78591,55.56299 L19.61015,55.55453 L19.63271,55.66787 L19.70674,55.73892 L19.74091,55.82406 L19.74091,55.9233 L19.80553,56.06483 L19.90499,56.09922 L20.1236,56.05355 L20.22025,56.29544 L20.16865,56.8001 L19.82295,57.17958 L19.51356,57.39272 L19.0742,57.61713 L18.08068,57.75302 L17.3493,58.07104 L16.79012,57.92951 L16.76469,57.74513 L16.83873,57.41301 L16.73639,57.39272 L16.62598,57.78122 L16.33035,57.80715 L15.94185,57.74513 L15.44289,57.52917 L15.11896,57.22863 L14.94613,57.18296 L14.79581,57.26246 L14.62293,57.60529 L14.46387,57.52917 L14.30486,57.49816 L14.28811,57.63405 L14.54016,57.73611 L14.28524,57.9577 L14.28811,58.13081 L14.35059,58.14434 L14.43556,58.04285 L14.4668,58.2526 L14.35352,58.53058 L14.25112,58.73188 L13.95335,59.01889 L13.92358,59.10685 L13.92211,59.10685 L13.86544,59.27657 L13.61272,59.53425 L13.53068,59.72484 L13.51032,59.90922 L13.30626,60.25825 L13.24666,60.44489 L13.27209,60.59262 L13.38323,60.71723 L13.39118,60.82267 L13.32656,61.05216 L13.42823,61.22019 L13.56479,61.38709 L13.65264,61.4525 L13.888,61.66508 L14.21695,62.3231 L14.31647,62.79731 L14.52927,63.2935 L14.66218,63.53765 L14.77906,63.83819 L14.82705,64.07952 L14.80743,64.66706 L14.73333,65.05838 L14.74495,65.62563 L14.56051,66.34624 L14.3419,67.04993 L14.09206,67.45872 L13.85383,67.6713 L13.80883,67.93519 L14.31354,68.21599 L14.2823,68.78323 L14.17483,69.18076 L13.88219,69.75363 L13.72893,69.94083 L13.02298,70.24983 L12.82112,70.14495 L12.49791,69.8867 L12.34759,69.90701 L12.17979,70.03162 L12.1914,70.32934 L12.25968,70.51089 L11.23859,70.7776 L10.72514,70.68401 L10.30462,70.47707 L9.939291,70.26675 L9.527505,70.26675 L9.368441,70.37444 L9.37718,71.14637 L9.32632,71.19768 L9.317636,71.59181 L9.314705,71.90137 L9.252285,71.9978 L9.241403,72.19909 L9.363365,72.59605 L9.771544,72.82554 L10.19714,72.60507 L10.52322,72.69585 L11.05703,72.34062 L11.13907,71.89799 L11.93868,71.76436 L13.10508,71.27662 L13.77759,71.13791 L14.48642,71.25407 L15.16181,71.43845 L15.19017,71.54107 L15.47413,71.748 L15.89973,71.84724 L16.52065,72.28085 L16.76176,72.58139 L16.56858,72.76633 L16.64555,73.01894 L16.92376,73.28565 L17.05085,73.65723 L17.42559,73.98314 L17.56718,74.3316 L17.83157,74.57576 L17.97028,74.45171 L18.34502,74.67274 L18.82148,75.10691 L19.04296,75.50105 L19.12213,76.03164 L19.13882,76.29552 L19.04003,76.53968 L19.03135,76.73816 L19.25283,77.00148 L19.44528,77.06689 L19.55642,77.20842 L19.5448,77.399 L19.24415,77.79032 L19.24996,77.89294 L19.12501,78.08522 L19.80553,78.55096 L19.86293,78.49966 L20.23694,78.86617 L20.91813,79.36179 L21.38005,79.60594 L21.83976,80.03448 L23.26396,80.66713 L24.18632,81.24565 L24.8581,81.6832 L25.25027,82.02885 L25.46527,82.28146 L25.87124,82.99643 L25.84581,83.46951 L25.95329,83.8191 L26.39631,84.34406 L26.25687,84.81487 L25.88793,85.15826 L25.10214,85.6945 L24.1892,86.08863 L23.77747,86.20197 L23.34093,85.6601 L22.87834,85.26878 L22.91538,85.12387 L22.81005,84.89664 L22.54645,84.77203 L22.3191,84.76413 L21.78896,84.89945 L21.47083,85.03365 L21.09101,85.32516 L20.82155,85.3793 L20.37057,85.61499 L19.8825,85.89523 L19.62177,86.15968 L19.34655,86.26738 L19.2013,86.54536 L18.7735,86.99081 L18.60575,87.40243 L18.59413,87.68266 L18.78731,87.86423 L18.98342,87.88171 L19.42571,87.77965 L19.98489,87.49039 L20.82155,87.16955 L21.23266,87.08441 L21.45414,87.08441 L21.70105,87.15827 L22.09542,87.20902 L22.47236,87.20338 L22.61473,86.99363 L22.54932,86.84589 L22.63723,86.69591 L22.79336,86.62148 L22.89215,86.89721 L23.25308,86.9846 L26.16028,86.00067 L26.97731,85.64657 L27.48574,85.55579 L27.81182,85.30882 L28.42479,84.97952 L28.85254,84.56171 L30.21719,85.13289 L31.02621,85.23157 L32.02994,86.1484 L30.84758,87.96403 L31.125,88.13657 L32.63998,85.71987 L33.11131,85.54677 L33.61607,85.84166 L33.68142,86.34406 L34.27697,86.8318 L34.53263,87.79092 L35.23057,88.50252 L35.75784,89.18704 L34.72287,91.29418 L34.89575,91.41034 L35.95102,89.22031 L36.37075,89.44473 L36.20374,90.30743 L36.63734,90.55383 L36.67433,90.97391 L37.22483,91.23779 L37.61631,91.6573 L38.24885,92.2815 L38.90975,92.0802 L39.07175,92.10558 L39.14798,92.40611 L38.92937,92.75852 L38.92717,93.04778 L39.32667,94.26459 L39.35791,94.66211 L39.53434,94.92262 L39.81762,95.78757 L39.95413,96.09995 L40.02456,96.41797 L40.17201,96.57642 L40.18362,96.73824 L40.3768,96.93164 L40.3485,97.15549 L40.26572,97.15832 L40.28895,97.27447 L40.43347,97.29477 L40.48721,97.35454 L40.47051,97.46787 L40.45309,97.831 L40.52718,97.96464 L40.78498,98.21612 L41.2505,97.97253 L41.58825,97.97535 L41.76401,98.11687 L41.89178,98.42023 L42.03342,98.64803 L42.32826,98.75798 L42.6544,98.75798 L42.94704,98.6283 L43.34941,98.00636 L43.70746,97.89641 L44.04442,97.90994 L44.04442,98.51722 L44.37417,98.53188 L44.39086,97.69398 L44.56949,97.69229 L44.61161,97.69229 L44.61815,97.9838 L44.75105,97.98099 L44.75325,97.69229 L45.7272,97.68327 L45.83467,97.88738 L46.33144,98.2195 L46.29439,98.31874 L46.58416,98.47211 L45.89715,99.82198 L45.99949,99.87894 L46.61539,98.74163 L46.72287,98.54259 L47.0918,97.99283 L47.29879,98.10616 L47.42955,97.94997 L47.84348,98.30125 L48.16668,98.64465 L47.66479,99.65791 L47.73307,99.7312 L47.06056,100.8352 L47.20801,100.926 L47.85222,99.87273 L47.85222,99.87217 L47.9655,99.85356 L48.02797,99.97253 L47.98512,100.0887 L48.10421,100.228 L48.24658,100.2421 L48.53562,99.97253 L49.32434,100.1315 L49.7928,100.8324 L50.23215,101.8761 L50.18423,102.2139 L49.69615,102.4383 L49.75282,102.7157 L49.54583,102.7896 L50.02229,104.2878 L49.94312,104.3131 L47.57694,105.0191 L47.65611,105.2863 L50.02229,104.577 L50.11888,104.9057 L50.53281,104.7896 L50.689,104.8804 L50.95553,104.6932 L51.0325,104.5742 L51.36658,104.5201 L51.75875,104.7732 L52.43634,104.9458 L53.10017,105.2632 L53.48359,105.8852 L53.61074,106.5263 L53.65067,107.5502 L53.24469,108.4434 L52.42258,109.2238 L52.42545,109.4882 L52.3826,109.729 L52.03329,110.1175 L51.97155,110.2962 L51.77837,110.316 L51.67597,110.3498 L51.6934,110.4722 L51.77256,110.5832 L51.91708,110.6086 L51.9345,110.8127 L51.8263,110.8838 L51.75875,110.9853 L51.90039,111.283 L52.05652,111.2892 L52.02241,111.4307 L52.09864,111.5869 L52.29182,111.729 L52.42258,111.8514 L52.485,112.0013 L52.61502,112.0583 L52.72323,112.1716 L52.88156,112.1 L53.07474,112.0921 L53.41537,112.3645 L53.38413,112.5601 L53.41824,112.5968 L53.67316,112.4586 L54.496,112.1175 L54.95865,112.0126 L56.03641,112.0893 L56.30294,112.2788 L56.72054,112.435 L56.76559,112.5686 L56.77721,112.9858 L56.92172,113.0033 L56.92753,112.6909 L56.96678,112.4896 L57.26235,112.4778 L57.60512,112.4242 L58.25801,112.4524 L59.21381,112.634 L59.32489,112.8071 L59.44618,112.9007 L59.45198,113.1133 L59.58568,113.1584 L59.63067,113.2864 L59.85796,113.292 L59.96042,113.4364 L60.15286,113.4589 L60.20947,113.5988 L60.33149,113.6698 L60.6097,113.6354 L61.57125,114.8099 L61.61698,115.3574 L61.38969,115.91 L61.25679,115.91 L61.15439,115.9957 L60.97283,116.0606 L61.28509,116.325 L61.22842,116.9289 L61.12896,117.0456 L61.10646,117.2808 L61.03237,117.6349 L60.91616,117.6038 L60.90454,117.7629 L61.06648,117.8993 L61.47754,117.848 L61.739,117.9591 L61.84647,118.1435 L61.77317,118.3357 L61.75569,118.532 L61.66203,118.66 L61.55743,118.7445 L61.47754,118.9007 L61.50077,119.1562 L61.67945,119.3715 L61.99104,119.4059 L62.22995,119.3603 L62.46237,119.1674 L62.57272,118.8725 L63.01287,118.4863 L63.71081,117.8711 L63.84952,117.6924 L64.3884,117.3208 L64.64986,116.9977 L64.86481,116.157 L65.0268,115.9675 L64.94471,115.7003 L65.21124,115.3715 L65.67389,115.0541 L65.74432,114.7592 L66.23527,113.9128 L66.40815,113.8965 L66.58971,113.7685 L66.54759,113.6241 L66.00285,113.6123 L65.51189,111.6777 L65.50608,110.1429 L65.68477,108.5235 L66.3406,106.6531 L66.61801,105.9472 L67.30508,105.5671 L67.89769,104.8922 L68.39445,103.9562 L68.83381,103.9218 L69.72787,104.1005 L71.18617,104.5855 L71.88119,105.6467 L72.62125,106.1321 L72.64956,106.6249 L72.94085,106.7783 L72.22982,107.3123 L72.14773,107.204 L72.04533,107.2807 L72.27555,107.5846 L72.37141,107.513 L72.2923,107.4081 L73.05266,106.837 L73.18336,106.9063 L73.25385,107.045 L73.45576,107.0788 L73.61697,107.1899 L73.72811,107.5328 L73.55743,107.857 L73.52039,108.1028 L73.72811,108.1801 L74.0883,108.0639 L74.18416,108.1857 L74.45142,108.1801 L74.97581,107.981 L75.38467,107.9134 L76.73771,108.0098 L77.63971,107.9416 L78.09943,108.007 L78.32892,108.2308 L78.67828,108.9317 L79.85263,110.5229 L80.08286,111.1076 L80.41982,111.3174 L80.97618,112.0972 L81.79028,112.7473 L81.77359,112.8979 L82.09967,113.0941 L82.63567,113.5734 L83.91535,113.9782 L84.34963,114.1886 L84.28716,114.3442 L84.38087,114.4412 L84.62198,114.4891 L84.64448,114.6391 L84.94806,114.7073 L85.26546,114.5122 L85.25457,114.3786 L85.44989,114.356 L85.49568,114.2224 L85.6402,114.2167 L85.76221,114.1463 L85.82757,114.038 L85.95466,114.0329 L85.96046,113.9444 L86.06287,113.9393 L86.1987,113.786 L86.52839,113.2892 L86.55675,113.0992 L86.75207,112.8607 L86.9903,112.7642 L87.05859,112.4158 L87.30843,112.2145 L87.78771,111.6123 L88.4203,110.8353 L88.75512,110.1237 L88.88002,109.8395 L89.02747,108.8381 L88.99916,108.4496 L88.82628,107.9241 L88.70426,107.8705 L88.58224,107.6918 L88.392,107.601 L88.29248,107.3743 L87.96346,107.0788 L87.88723,106.9683 L88.02594,106.9227 L87.85892,106.8584 L87.75359,106.7501 L87.65994,106.824 L87.28587,106.6796 L86.91407,106.506 L86.59013,106.2849 L86.6301,105.888 L86.71796,105.3596 L86.90826,105.0055 L87.19221,104.9204 L87.33092,105.0535 L87.44714,105.2435 L87.55241,105.2553 L87.41297,104.943 L87.40716,104.7586 L87.59747,104.6424 L87.96346,104.2878 L88.16251,104.202 L88.30409,104.2703 L88.46023,104.0041 L88.7094,103.6066 L88.9708,103.4679 L88.80886,103.3399 L89.22064,102.6137 L89.56054,102.1169 L90.12846,102.361 L90.34927,102.6137 L90.22437,102.7304 L90.26717,103.0337 L90.42336,103.3061 L90.44005,103.4848 L90.78068,104.0633 L91.0414,104.0859 L91.22584,104.0521 L91.33117,103.8705 L91.46407,103.879 L91.68555,103.6974 L91.83588,103.6748 L92.09154,103.5186 L92.40893,103.1358 L92.77206,102.3103 L93.27174,101.4397 L93.56947,101.0794 L94.02343,100.8719 L94.364,100.8719 L94.59642,101.0196 L94.78667,101.1927 L95.19778,101.4476 L95.47593,101.5666 L96.03731,102.0498 L96.23341,102.1169 L96.48321,102.0069 L96.6619,101.76 L96.86595,101.6213 L97.1158,101.8 L97.0955,102.1005 L97.10999,102.3385 L96.81515,103.0055 L96.56824,103.4905 L96.29877,104.0633 L95.83031,104.3244 L95.05326,104.6481 L94.75836,104.983 L94.60804,105.3004 L94.62473,105.632 L94.42355,106.4665 L94.23911,106.5624 L94.21368,106.7558 L94.27829,107.0681 L94.35239,107.2294 L94.61892,107.9134 L95.0024,107.9528 L95.22608,108.1857 L95.99812,108.6593 L96.47159,109.1561 L96.80641,109.7888 L97.15504,110.007 L97.39322,110.506 L97.4332,110.7727 L97.61764,110.917 L97.76801,111.2802 L98.31271,111.8705 L98.85739,112.3989 L99.076,112.2709 L99.33673,112.3814 L99.442,112.6594 L99.73685,112.7327 L99.99763,112.7276 L100.1196,112.7924 L100.6505,112.8325 L101.0732,112.7874 L101.8445,112.4919 L101.8677,112.4214 L102.225,112.3645 L102.7014,112.2878 L103.1525,112.2596 L103.4502,112.1119 L103.9216,111.7916 L103.9441,111.4679 L104.0944,111.6072 L104.4438,111.3292 L104.4322,111.1251 L104.6391,111.1358 L105.1954,110.8753 L105.3059,110.7445 L105.5666,110.634 L106.2079,110.0267 L106.2616,109.817 L106.4918,109.7769 L106.5201,109.6151 L106.8862,109.283 L107.014,109.2666 L107.258,109.1279 L107.343,108.8719 L107.5812,108.6475 L107.7315,108.5658 L108.2109,108.665 L108.4208,108.3814 L108.6735,108.2934 L108.9996,108.1744 L109.0338,107.7972 L109.1898,107.7459 L109.2603,107.9303 L109.3795,107.9241 L109.439,108.0464 L109.5559,108.0239 L109.5726,107.919 L109.7455,107.9015 L110.1289,107.9015 L110.4688,107.72 L110.6082,107.5328 L110.6533,107.3743 L110.6192,107.2525 L110.7586,106.9176 L110.6591,106.5573 L110.5799,106.1231 L110.5966,105.6782 L110.7187,105.522 L110.7019,104.9999 L110.5567,104.6199 L110.4013,104.4693 L110.163,104.4744 L109.797,104.5917 L109.6234,104.4039 L109.1782,104.4518 L108.9538,104.5601 L108.4266,104.5144 L107.8876,104.4101 L107.4933,104.1203 L107.1411,103.8135 L107.0873,103.3799 L106.8404,103.3286 L106.8179,102.9965 L106.5514,103.1127 L106.4352,103.2125 L106.0858,102.8296 L105.5498,102.7016 L105.5128,102.568 L105.3625,102.4772 L105.2608,102.1513 L104.9282,102.0436 L104.605,102.0723 L104.3922,101.862 L104.154,101.8446 L103.9869,101.7481 L103.8875,101.7775 L103.8308,101.6884 L103.7255,101.7656 L103.6746,101.6833 L103.4306,101.6438 L103.419,101.4115 L103.3086,101.3771 L103.13,101.5158 L103.0871,101.3314 L102.968,101.2835 L102.7755,101.0591 L102.6673,100.8803 L102.5627,101.0112 L102.6789,101.1583 L102.6194,101.5615 L102.4574,101.6776 L102.0231,101.4876 L101.6295,100.9486 L101.4959,100.3582 L100.9599,99.75094 L101.1778,99.56937 L100.8662,99.0901 L100.7043,99.11321 L100.7159,99.21809 L100.5655,99.1837 L100.5423,99.10194 L100.4493,99.0901 L100.4203,99.34553 L100.2874,99.32297 L100.3041,99.08446 L100.0434,98.54541 L98.9082,97.38273 L98.65327,96.75797 L98.7528,96.68749 L98.61336,96.50311 L98.35262,96.44334 L97.72803,96.37511 L97.50143,95.46166 L97.58933,93.98943 L97.56971,93.85579 L97.70842,93.91557 L97.83624,93.79941 L97.91254,93.55525 L98.16525,93.35396 L98.18488,93.12165 L98.38093,92.89723 L98.58212,92.91978 L98.59954,93.04778 L98.82034,93.09289 L98.9881,93.04158 L99.23213,92.87468 L99.25463,92.71003 L98.95398,92.61361 L98.98228,92.50874 L99.13261,92.27078 L99.08181,92.09711 L99.15517,91.87326 L99.34254,91.77966 L99.54366,91.43007 L100.0833,90.95079 L100.1116,90.66209 L100.3441,90.69028 L100.551,90.54594 L100.5968,90.21101 L100.5401,89.86141 L100.3441,89.72552 L100.2845,89.40469 L100.2562,89.23779 L100.429,88.25272 L100.6505,88.09146 L100.7784,87.88452 L100.7551,87.35055 L100.6222,87.44472 L100.5169,87.33984 L100.5343,87.09569 L100.6846,87.02746 L100.6846,86.66715 L100.506,86.46529 L100.2845,86.35534 L100.0317,86.37789 L99.9722,85.94992 L99.99543,85.82813 L100.0942,85.7599 L99.95551,85.487 L99.93803,85.30882 L100.0884,85.24905 L99.978,85.12105 L100.0179,84.98742 L99.978,84.82051 L100.1,84.63049 L100.055,84.51997 L99.93295,84.4743 L99.90972,84.35815 L100.1116,84.16249 L100.0833,83.86195 L99.72308,83.77907 L99.64319,83.58961 L99.74851,83.56367 L99.79932,83.4024 L99.91553,83.33362 L99.59814,83.17179 L99.45875,82.97952 L99.44493,82.82333 L99.36504,82.82333 L99.29968,82.73254 L99.24883,82.76694 L99.26624,82.87125 L99.16965,82.87125 L99.076,82.77765 L98.94237,82.84588 L98.82034,82.82333 L98.79785,82.68405 L98.74118,82.6553 L98.60754,82.69533 L98.57124,82.61075 L98.50295,82.59891 L98.50295,82.47712 L98.38093,82.49403 L98.33012,82.42299 L98.2248,82.42918 L98.17975,82.31585 L98.18488,82.25044 L98.2473,82.20477 L98.25316,82.08241 L98.21318,82.04858 L98.13695,82.11117 L98.04036,82.06606 L98.02869,81.9781 L97.82463,81.92622 L97.77963,82.05422 L97.6743,82.11681 L97.66342,82.21041 L97.57478,82.27299 L97.51304,82.28428 L97.48981,82.15966 L97.40777,82.12809 L97.22913,82.13429 L97.09042,81.96626 L96.96835,81.98374 L96.86889,81.92115 L96.86308,81.67757 L96.81802,81.5039 L97.02795,81.57494 L97.03303,81.42157 L96.81222,81.39902 L96.77811,81.32515 L96.54568,81.28286 L96.52826,81.45315 L96.59942,81.60313 L96.50576,81.71929 L96.36632,81.58678 L96.32127,81.37083 L96.33289,80.79794 L96.59361,80.78046 L96.69601,80.6192 L96.93423,80.61356 L97.13542,80.57352 L97.29156,80.35757 L97.16666,80.02884 L97.06133,79.98655 L97.06133,79.89577 L97.19497,79.86137 L97.20658,79.69109 L97.36272,79.78469 L97.37365,79.67417 L97.51304,79.69109 L97.50723,79.85291 L97.70842,80.26397 L97.91254,80.1309 L97.84712,79.55801 L97.71423,79.21181 L97.50723,79.14922 L97.37365,79.01051 L97.20658,79.11821 L97.28575,79.28849 L97.21746,79.35108 L97.05626,79.12385 L96.83472,78.96766 L96.63866,78.85996 L96.39462,78.6784 L96.29003,78.55096 L96.10559,78.59382 L96.08309,78.53405 L95.98938,78.51093 L95.9044,78.6846 L95.56091,78.62765 L95.54421,78.72069 L95.15492,78.77256 L95.07576,78.68967 L94.79761,78.65585 L94.81503,78.77256 L94.61892,78.80075 L94.61311,78.62201 L94.54849,78.61637 L94.4969,78.68967 L94.3865,78.61017 L94.3923,78.53912 L94.43155,77.94933 L94.75836,77.86418 L94.75256,77.64315 L94.45771,77.49824 L94.3923,77.60876 L94.23036,77.65443 L93.86436,77.19206 L93.73653,76.61298 L93.79608,76.35812 L93.88393,76.28989 L94.05754,76.35812 L94.19625,76.31245 L94.17375,76.2132 L93.64068,76.0401 L93.43583,75.75591 L92.71251,75.04433 L92.23318,74.87686 L92.05449,74.78382 L91.78801,74.73195 L91.45319,74.79453 L91.35947,74.90562 L91.22584,74.91633 L90.96511,74.962 L90.80317,74.91633 L90.63029,74.77762 L90.57075,74.54475 L90.43204,73.97186 L90.73562,73.87601 L90.76398,73.77621 L90.8489,73.74802 L90.91431,73.47567 L90.81479,73.41026 L90.82059,73.17513 L90.75231,73.18077 L90.7407,73.00146 L90.64191,72.9417 L90.67535,72.83118 L90.60199,72.7748 L90.36375,72.75224 L90.36957,72.55939 L90.22437,72.53064 L90.01151,72.27522 L89.77334,71.84161 L89.75084,71.60817 L89.81907,71.18358 L90.0798,71.12889 L90.13647,71.20614 L90.30134,71.22869 L90.55914,71.14355 L90.76398,70.92195 L90.88014,70.55037 L90.79229,70.37163 L90.65865,70.34343 L90.70946,70.25547 L91.01884,69.93802 L91.33117,69.82693 L91.49818,69.492 L91.78214,69.34202 L91.85043,69.20895 L91.98914,69.18639 L92.16489,69.10351 L92.30941,68.92476 L92.42928,68.89657 L92.57961,68.62986 L92.82872,68.60731 L93.05602,68.08517 L93.28551,67.59462 L92.97905,67.26814 L92.75536,66.28647 L92.87445,66.21034 L92.74375,65.8382 L92.75824,65.28787 L92.99647,65.08093 L92.89407,64.80239 L93.10107,64.04005 L93.26301,63.03864 L93.45618,62.85426 L93.39664,62.1218 L93.24632,61.12941 L93.13518,60.09078 L92.7067,59.10685 L92.70597,59.10685 L92.61592,58.89878 L92.26148,58.37157 L92.10535,57.86917 L92.24479,57.50887 L92.59337,57.13503 L92.97398,56.86833 L93.37341,56.69748 L93.83019,56.76909 L94.02924,56.89652 L94.19625,57.26472 L94.50858,57.4756 L94.69882,57.56356 L94.71551,57.65435 L94.90868,57.6707 L95.18108,57.41809 L95.35972,57.43557 L95.62625,57.26472 L95.74246,57.382 L95.98357,57.45248 L96.33796,57.22581 L96.26173,56.96418 L96.1397,56.92471 L96.20511,56.84521 L96.07148,56.56159 L96.02349,56.3913 L96.36124,56.21256 L96.38955,55.90075 L96.47159,55.80714 L96.40624,55.61712 L96.50576,55.51732 L96.49415,55.22862 L96.48321,55.10063 L96.63359,55.14856 L96.67278,54.88185 L96.49415,54.79389 L96.4774,54.68394 L96.32127,54.63206 L96.32127,54.30897 L96.19925,53.99152 L96.30965,53.89791 L96.31258,53.78176 L96.27841,53.63629 L96.47159,53.5799 L96.56243,53.4519 L96.44041,53.12599 L96.50576,52.93034 L96.46578,52.85647 L96.29584,52.88466 L96.15132,52.49052 L96.00607,52.28359 L96.06567,52.17871 L95.9494,52.09018 L95.9044,51.96332 L95.63787,51.94584 L95.55509,51.71635 L95.65456,51.70451 L95.75916,51.62838 L95.83906,51.17166 L95.66618,51.22804 L95.54929,51.06622 L95.48174,50.81699 L95.35391,50.74313 L95.21447,50.81699 L95.12149,50.72621 L94.92538,50.2864 L94.7039,50.17588 L94.64142,50.04789 L94.55357,50.03661 L94.28123,49.70732 L94.34077,49.48685 L94.19625,49.48064 L94.20206,49.41242 L94.39744,49.36449 L94.43736,49.09722 L94.24491,48.9929 L94.05173,49.05211 L93.86436,49.02392 L93.79608,48.83672 L93.64068,48.76849 L93.51866,48.79668 L93.47868,48.63542 L93.38503,48.55535 L93.29131,48.411 L93.52374,48.27737 L93.77358,48.32304 L93.92972,48.25763 L94.06335,48.252 L94.17375,48.32868 L94.30666,48.18941 L94.23036,48.11329 L94.27034,47.99431 L94.4519,48.02814 L94.60804,47.90635 L94.53688,47.65656 L94.12509,47.13725 L94.21875,46.52715 L94.21875,46.28018 L94.33569,46.12455 L94.22456,45.76425 L94.33569,45.7073 L94.4686,45.81556 L94.67559,45.71857 L94.48021,45.59678 L94.4686,45.34135 L94.14252,44.93594 L94.05173,44.59537 L94.08585,44.42847 L93.98058,44.16063 L94.06842,44.06196 L93.99219,43.83754 L93.84767,43.80089 L93.83019,43.70504 L93.92972,43.72139 L94.00888,43.61087 L93.8135,43.13667 L93.52374,43.04306 L93.50124,42.92691 L93.69148,42.85925 L93.54116,42.35403 L93.32836,42.32584 L93.40752,41.98019 L93.40172,41.75296 L93.66318,41.55166 L93.48962,41.537 L93.2797,41.59677 L93.22303,41.82682 L93.11269,41.98526 L92.80036,41.90858 L92.76117,42.04729 L92.56219,42.00838 L92.47141,41.81498 L92.13947,41.80934 L92.04287,41.69601 L91.73134,41.61368 L91.63182,41.4355 L91.1496,41.27931 L90.98473,41.13158 L90.6361,41.29567 L90.36957,41.26747 L89.84162,41.51444 L89.58089,41.82682 L89.45013,42.10988 L89.29107,42.08732 L89.05871,42.133 L88.8684,42.09916 L88.67015,42.02812 L88.57356,42.21814 L88.66722,42.29144 L88.80592,42.22096 L88.89671,42.29426 L89.05577,42.84797 L88.89671,43.97118 L88.91125,44.6636 L88.70719,45.04025 L88.36657,45.28159 L87.74198,45.33628 L87.22053,45.2252 L87.02441,45.05773 L86.9024,44.76284 L86.8857,44.31682 L87.28807,44.00557 L87.06439,43.68756 L86.75788,43.35544 L86.38607,43.34417 L86.3294,43.22801 L86.15365,43.22801 L86.08537,43.29906 L85.96921,43.37292 L85.83044,43.38984 L85.73966,43.3047 L85.60608,43.36728 L85.51818,43.47724 L85.35624,43.44341 L85.27414,43.28722 L85.43613,43.04927 L85.27414,42.93875 L85.33368,42.56379 L85.18336,42.55307 L85.03304,42.36587 L84.9052,42.45327 L84.80061,42.63821 L84.66698,42.45947 L84.55082,42.42508 L84.35471,42.62074 L83.99446,42.56379 L83.94366,42.80511 L83.64295,42.73182 L83.42728,43.00416 L83.3648,42.83049 L83.24864,42.73745 L83.14332,42.79891 L83.12663,42.69742 L83.04746,42.76001 L82.96463,42.70306 L82.80849,42.77692 L82.82011,42.69178 L82.76344,42.73745 L82.72933,42.69742 L82.71557,42.51586 L82.66978,42.56379 L82.48535,42.59818 L82.35752,42.71997 L82.39163,42.83049 L82.37495,42.91056 L82.36333,43.01487 L82.31828,43.02051 L82.32335,42.8818 L82.27542,42.85361 L82.22456,42.92127 L82.25874,43.03235 L82.29792,43.14851 L82.26381,43.24493 L81.82445,43.18854 L81.73942,43.57704 L81.71912,43.70504 L81.55785,43.70504 L81.46133,43.63343 L81.40753,43.55449 L81.43589,43.44904 L81.36761,43.43777 L81.34512,43.70504 L81.50124,43.95088 L81.38503,44.32866 L81.20567,45.06901 L81.32769,45.54885 L81.35092,45.8212 L81.3335,46.15331 L81.38503,46.33769 L81.40173,46.7995 L81.66826,47.54041 L81.61745,47.79527 L81.74522,48.2238 L81.84695,48.77413 L81.52374,49.8979 L81.34512,50.79951 L80.64423,51.53478 L80.48811,51.86069 L80.58762,52.06763 L80.92239,52.18378 L81.38503,52.23566 L81.68574,52.70592 L81.62834,53.4068 L80.73214,54.4426 L80.28985,54.41949 L79.81052,54.42513 L79.52655,54.7375 L78.98181,54.75442 L79.04429,55.3132 L78.34634,55.36733 L78.11905,55.20607 L77.71961,55.28783 L77.54606,55.38989 L76.93889,55.50097 L76.23875,55.42654 L75.47545,54.55876 L75.31932,53.99152 L75.39341,53.13445 L75.68244,52.74595 L75.59166,52.53056 L75.40429,52.40256 L74.91334,52.54184 L74.8313,52.85647 L74.65842,53.06904 L74.52479,52.9901 L74.47398,52.66927 L74.38026,52.57849 L74.3011,51.95147 L74.10212,51.44964 L74.06795,51.2506 L73.92343,51.48911 L73.65108,51.64474 L73.27927,51.55452 L72.80575,52.20126 L72.28937,52.65235 L72.22689,52.93034 L72.10493,53.02901 L71.90955,52.95289 L71.27115,53.38142 L71.44109,54.06482 L71.73599,54.77754 L71.61392,55.43274 L71.15206,56.2182 L70.51366,56.24075 L69.21729,55.56017 L69.82953,54.85366 L69.81284,53.90863 L69.25648,53.3786 L68.17004,53.05269 L67.45247,53.02393 L66.81993,52.48432 L66.53011,52.38001 L66.07913,51.81784 L64.73772,51.11189 L63.12034,50.50461 L62.46818,48.7341 L63.19736,48.06254 L64.14729,46.88745 L64.64986,45.04025 L66.08495,44.50741 L67.9035,43.74676 L67.96597,43.57704 L67.88676,43.07746 L67.75317,42.71997 L67.96017,42.62074 L68.62101,42.82542 L69.06116,43.02051 L69.37269,42.93255 L69.3277,42.61566 L69.25067,42.51586 L69.2456,42.34839 L69.9348,41.60804 L70.2805,41.7304 L70.8027,41.85783 L70.2297,41.20827 L70.0968,40.95284 L69.91738,40.71095 L69.34151,40.18994 L67.33045,38.73744 L66.97026,38.31454 L65.46109,37.40673 L65.07253,37.07969 L64.70067,36.8502 L64.23227,36.44422 L62.81388,35.57644 L62.03384,34.98101 L60.81083,33.82059 L59.88052,32.8733 L59.64809,32.46732 L59.54282,32.05063 L59.64809,32.0106 L59.6764,31.89444 L60.00254,31.74389 L60.12743,31.54823 L60.2865,31.54823 L60.65757,31.11463 L60.75422,30.78251 L60.68373,30.49269 L60.4993,30.44758 L60.46513,30.19779 L60.2865,29.92545 L60.18117,29.90289 L60.05915,30.01341 L59.8384,30.03032 L59.64809,30.11265 L59.25954,29.95364 L58.8623,29.93729 L58.72286,29.85158 L58.49624,29.88541 L58.21228,30.11265 L57.88333,30.23219 L57.48891,30.01341 L57.07205,29.50875 L56.876,29.12251 L56.68936,29.012 L56.59852,29.13943 L56.62688,29.31817 L56.73723,29.36328 L56.93842,29.84651 L57.13453,30.0416 L57.62254,30.3709 L57.17157,30.36469 L56.49905,30.33142 L55.47503,30.15776 L55.0465,29.37512 L55.88028,27.65027 L56.23252,27.14224 L56.47656,27.12025 L56.54405,27.37229 L56.53897,27.58205 L56.78302,27.70384 L56.98708,27.67283 L57.00963,27.32718 L57.21656,26.81633 L57.89494,26.57556 L58.3859,26.51015 L58.74609,26.20905 L59.1201,26.08162 L59.34164,26.12955 L59.4636,25.89104 L59.66479,25.71849 L60.05915,25.11122 L60.33149,24.60036 L61.05487,23.15406 L61.35552,21.75795 L61.41292,20.4216 L61.35044,19.98743 L61.38388,19.68069 L61.46085,19.63276 L61.57125,19.01985 L61.64822,17.80868 L61.25679,16.22931 L61.25679,15.53633 L61.20519,15.0655 L61.31633,14.84109 L61.10646,14.20844 L61.25098,13.93046 L61.06068,13.72916 L61.11734,13.55041 L61.02656,13.33502 L61.12315,12.96062 L61.10065,12.677 L60.95027,12.33924 L60.59295,12.02179 L60.6097,11.66092 L60.54429,11.49966 L60.29738,11.34347 L60.03084,11.04857 L59.85796,10.52362 L59.90882,10.2197 L60.11074,9.856573 L60.03665,9.65302 L59.71057,9.936077 L59.57401,9.868414 L59.48035,9.000071 L59.61979,8.247883 L60.04827,7.910695 L59.68221,7.73759 L59.57401,7.553208 L59.67059,7.332176 L59.57987,7.124676 L59.09179,6.864173 L59.09179,7.158507 L58.91897,7.459608 L58.74028,7.221096 L58.3568,6.903643 L58.46794,5.956359 L58.39097,5.695293 L57.88333,5.752243 L57.86658,5.294953 L57.81792,5.161318 L57.6959,5.110571 L57.70171,4.878261 L57.55138,4.790299 L57.3277,5.079559 L56.89923,5.329348 L56.27464,4.983139 L55.99649,4.21178 L56.46489,3.771405 L56.23833,3.627058 L56.05383,3.326521 L56.17004,3.153416 L56.12719,2.997227 L55.67622,3.09703 L55.78149,2.753076 L55.73576,2.503286 L55.21938,2.37078 L55.00658,2.185834 L55.14021,1.660881 L55.31309,1.439284 L55.28473,1.104916 L54.87875,0.5940594 L54.42778,0.6115391 z" stroke="#000000" stroke-width="0.24" fill-opacity="0" />
</svg>