<?xml version="1.0" encoding="UTF-8" standalone="no"?>
<!DOCTYPE svg PUBLIC "-//W3C//DTD SVG 1.1//EN" "http://www.w3.org/Graphics/SVG/1.1/DTD/svg11.dtd">
<svg width="120pt" height="120pt" viewBox="0 0 120 120" overflow="visible" version="1.1" xmlns="http://www.w3.org/2000/svg">
  <path d="M83.21635,60.27704 L82.96468,56.5136 L84.28757,56.12121 L85.25268,57.11392 L86.55029,59.60752 L87.29366,59.14576 L87.91478,57.02161 L88.15946,55.86721 L90.24203,56.2829 L91.44716,55.42857 L92.36834,52.56571 L90.75685,50.88018 L89.59098,50.67243 L90.01348,48.04026 L89.80106,47.18612 L89.01379,47.13987 L88.50111,45.87003 L87.46216,44.8542 L86.74873,43.39956 L87.44603,42.33747 L86.70481,42.38372 L85.87379,42.75317 L85.22722,42.08365 L85.20643,41.27539 L84.77479,39.84405 L84.08215,40.62901 L83.32247,40.25956 L83.50477,39.45149 L83.36639,38.66653 L82.06876,38.11246 L80.95363,37.25813 L79.69993,37.05038 L78.93343,36.40381 L79.80622,34.9031 L77.883,35.78054 L77.45119,34.51071 L79.27509,32.98687 L78.82499,32.64055 L77.34506,33.49488 L77.41426,32.75599 L78.30999,32.06335 L77.92908,30.83959 L76.784,29.75456 L75.3039,28.71543 L72.66259,28.18448 L70.4739,28.18448 L68.20885,25.968 L67.55798,21.30417 L68.35906,16.36339 L68.47916,11.37619 L65.83785,6.366218 L63.06031,2.741343 L59.09826,1.217505 L54.19208,0.5940594 L53.96819,1.332944 L50.33167,2.741343 L45.50866,1.517576 L45.32618,4.357497 L47.00238,8.675009 L47.06709,11.90732 L46.28214,14.49324 L46.97711,17.51779 L46.88927,20.49609 L45.21092,23.93616 L43.10755,24.32872 L41.16121,28.5308 L37.39777,33.21775 L35.0266,34.02583 L31.46411,42.24516 L29.76245,44.32307 L25.41267,45.98547 L22.75523,44.87733 L20.98438,48.91771 L14.58197,50.92643 L13.2822,52.47321 L11.11179,53.4661 L10.86711,55.22082 L6.628108,58.68401 L7.99725,61.43143 L8.484462,63.85566 L9.114719,63.90191 L10.79325,63.92503 L12.33556,65.10255 L12.31942,65.79519 L13.10205,66.69559 L13.7531,66.64934 L14.28656,67.68848 L14.05783,68.61181 L14.32115,68.93519 L15.18695,69.95102 L14.86375,73.9914 L14.55436,77.3854 L12.85037,81.03339 L12.24557,82.30323 L8.983147,86.57449 L8.149615,87.40569 L5.240502,90.2225 L4.707222,91.44608 L4.238472,91.86177 L3.543505,91.70008 L3.289681,91.03057 L2.488416,90.66113 L1.883613,91.46921 L1.837365,92.46191 L3.243433,93.40873 L2.892454,96.45623 L3.333419,97.17199 L5.219709,96.96423 L6.309573,99.29615 L6.942161,98.81127 L9.045527,99.38847 L10.70327,100.9585 L10.10062,101.8358 L10.56937,102.8054 L9.992167,104.5832 L11.17184,104.4909 L11.7329,103.1288 L11.71211,102.0667 L12.16706,101.9975 L12.65409,102.1359 L12.33556,104.3755 L12.81345,104.9066 L14.39966,104.9758 L16.41054,106.1533 L18.52555,106.4305 L19.19274,106.1763 L19.35209,106.5457 L20.80423,106.4996 L22.282,106.2919 L22.19184,105.7608 L23.51258,105.7147 L26.06372,106.084 L28.48114,105.4145 L29.96106,105.0219 L29.15532,105.9456 L28.88518,106.5457 L29.82483,107.146 L32.96016,105.1604 L38.58228,103.2673 L40.57236,101.0509 L41.8076,100.4274 L43.37984,100.0349 L44.93827,100.7737 L45.6587,101.9513 L44.42345,103.2673 L43.0613,103.8675 L44.54356,104.5141 L46.77849,103.9137 L48.43158,106.1071 L48.97884,107.9541 L52.86919,108.5313 L56.80112,107.3538 L61.52733,106.638 L64.54723,105.9916 L68.12585,104.5372 L69.34478,104.1909 L70.7763,104.6987 L71.6283,103.7291 L73.72933,104.0984 L74.53974,100.9815 L76.97329,99.13447 L79.60062,99.2499 L84.35228,97.70312 L85.31739,92.90073 L76.28065,92.16184 L82.20733,83.89626 L83.43092,83.48075 L84.66616,83.64226 L91.89977,76.30019 L88.13866,74.96117 L86.88496,76.76196 L84.48618,78.19347 L83.83047,75.95406 L85.04707,74.08372 L85.00101,69.69701 L84.42381,64.54848 z" stroke="#000000" stroke-width="0.24" fill-opacity="0" />
  <path d="M105.1662,81.93378 L104.5798,82.39555 L103.7232,84.21946 L103.2752,84.56577 L102.2802,85.85873 L100.9711,85.6741 L100.3892,84.47346 L98.04119,83.41138 L92.99878,84.21946 L91.82126,83.20362 L89.56553,85.48929 L91.85586,86.59762 L93.52292,88.2369 L93.72135,89.62217 L94.70725,90.31481 L95.53379,90.52257 L93.16495,93.17767 L89.96957,94.40144 L88.94907,95.55584 L88.94907,96.54855 L93.47667,93.73193 L96.30261,91.26145 L97.05996,92.27728 L97.35788,91.93096 L97.81497,92.57735 L98.23981,94.05512 L98.04119,94.63232 L98.50295,94.97864 L98.47301,95.41727 L98.60226,95.7636 L99.7658,96.06384 L99.82584,96.36391 L100.4238,96.87174 L100.7379,97.37975 L101.6037,98.11863 L101.9315,97.86463 L102.0262,98.11863 L102.712,98.51102 L102.8943,98.92671 L103.5778,99.52703 L104.1111,99.29615 L104.6537,100.0119 L106.1521,99.43472 L109.7146,98.71896 L109.9824,99.13447 L111.9334,98.8344 L113.1385,97.93382 L113.5795,97.84151 L114.1337,97.3335 L114.1567,97.03342 L114.5539,96.77943 L115.6205,96.15616 L116.1539,95.67128 L116.6409,95.04783 L116.7634,94.77088 L117.3314,94.74776 L117.9732,94.8632 L118.1626,94.51688 L118.1442,93.10848 L117.8739,91.46921 L118.1442,91.35377 L117.9016,90.638 L118.128,89.96849 L117.71,89.18336 L117.3707,89.20648 L116.8304,88.2369 L115.198,85.25859 L114.9325,84.81978 L115.4105,84.38114 L115.1888,84.05795 L114.6808,83.59619 L114.3553,83.71163 L113.0231,83.13443 L112.1367,82.39555 L111.7348,83.22675 L110.9383,83.22675 L109.2897,82.55724 L108.0176,82.48786 L107.6944,82.21091 L107.2604,81.31034 L106.2514,81.17178 L105.8427,81.91067 z" stroke="#000000" stroke-width="0.24" fill-opacity="0" />
  <path d="M73.82864,115.6888 L74.68296,113.7492 L72.79649,111.3944 L69.41648,110.4708 L68.2689,110.7017 L65.47289,110.1706 L65.00433,111.071 L65.00433,112.3871 L63.66064,113.7032 L63.34891,114.3958 L63.5728,115.4347 L64.55637,116.4043 L65.92551,117.9975 L68.389,119.4059 L72.39478,117.7435 z" stroke="#000000" stroke-width="0.24" fill-opacity="0" />
  <path d="M86.34702,62.19344 L86.32856,63.00152 L86.10234,63.37096 L86.34702,64.0636 L85.99389,64.50224 L86.52717,64.77918 L87.11351,64.27135 L87.15743,63.69416 L87.53601,63.04759 L87.44603,62.28576 L87.01887,62.44744 L86.76952,62.10095 z" stroke="#000000" stroke-width="0.24" fill-opacity="0" />
  <path d="M42.3848,103.7752 L41.9623,104.6295 L42.30396,104.7449 L42.78185,105.0219 L42.98046,104.8141 L42.71965,103.9369 z" stroke="#000000" stroke-width="0.24" fill-opacity="0" />
</svg>