<?xml version="1.0" encoding="UTF-8" standalone="no"?>
<!DOCTYPE svg PUBLIC "-//W3C//DTD SVG 1.1//EN" "http://www.w3.org/Graphics/SVG/1.1/DTD/svg11.dtd">
<svg width="120pt" height="120pt" viewBox="0 0 120 120" overflow="visible" version="1.1" xmlns="http://www.w3.org/2000/svg">
  <path d="M96.71679,43.36193 L95.93483,40.51958 L95.79876,38.56538 L93.27039,36.13768 L85.92248,33.88789 L82.73122,32.8223 L79.78819,33.47324 L76.8516,35.25 L74.46528,36.01954 L72.46372,36.13768 L70.95406,36.84838 L68.45557,35.25 L65.93868,37.08559 L64.06769,40.04609 L62.4693,43.59868 L60.05953,42.82867 L58.18256,43.59868 L57.66125,45.07893 L58.06993,47.03267 L56.58969,48.57222 L54.30404,48.98687 L50.8581,50.58526 L48.98112,52.42086 L46.84948,53.90111 L44.72978,53.24971 L44.05494,54.67111 L41.28384,55.38136 L37.39336,55.4995 L34.15475,54.78925 L30.24681,54.96716 L26.45747,55.6181 L23.38435,58.16394 L21.39475,57.513 L19.79636,58.28255 L19.37573,60.5328 L13.59679,63.49329 L7.788427,70.00638 L4.993427,73.32222 L2.264164,75.57201 L2.719731,78.29576 L4.318581,79.77647 L2.927057,84.5721 L1.523581,86.5263 L0.5940594,88.95354 L3.785784,89.60493 L5.73355,91.14449 L7.119098,96.35523 L11.06842,101.1513 L16.78254,104.5265 L21.64942,104.9407 L26.32093,104.5853 L27.57041,105.3553 L30.45413,102.3355 L33.6454,101.092 L35.6589,100.5588 L40.98182,98.72363 L45.53518,96.41454 L49.65597,95.34848 L51.40882,92.15124 L60.59233,86.70374 L63.92564,84.15791 L67.39548,81.6116 L70.72926,81.49346 L73.65987,79.89461 L76.73299,78.71041 L78.1898,75.74992 L79.1253,74.44712 L81.91386,72.78943 L82.47654,71.19057 L84.07493,69.88777 L86.47321,67.75658 L86.47321,66.69053 L83.93288,66.27634 L80.99629,66.45378 L79.1253,66.69053 L78.05327,65.50633 L79.1253,64.55888 L79.92426,63.0791 L78.87062,61.89444 L78.46792,60.29605 L76.98767,59.4079 L75.79152,57.74975 L75.3948,55.32205 L76.73299,53.78296 L77.75722,52.12481 L80.60555,53.60506 L83.00336,54.13786 L84.99296,56.80276 L86.33115,58.51929 L88.60485,59.23 L90.33978,59.3486 L91.93816,60.29605 L93.13432,58.6972 L94.86924,57.21695 L96.32604,55.0853 L97.02433,52.89436 L97.39761,50.28921 L100.1922,50.82201 L99.5173,48.15757 L99.13253,45.37498 z" stroke="#000000" stroke-width="0.24" fill-opacity="0" />
  <path d="M109.6069,15.05888 L108.334,14.94073 L107.3332,15.41423 L105.8824,15.00003 L104.3253,14.88143 L103.0106,15.71028 L101.5598,16.47982 L100.4707,17.66448 L99.3987,18.25658 L98.2738,18.61193 L97.62838,19.32217 L97.00089,21.03963 L96.40281,22.51941 L95.18919,23.76291 L95.15334,24.88781 L94.33644,24.82851 L92.81482,24.35501 L91.79014,25.4206 L90.40459,25.53921 L89.94305,26.72387 L90.65927,27.8483 L91.61269,28.67761 L93.41841,29.2104 L94.27116,30.3946 L95.26596,30.8681 L97.06616,31.6381 L98.80063,33.71045 L99.01393,35.48674 L97.88306,35.3093 L97.82973,37.08559 L98.65858,38.26979 L98.80063,40.22353 L100.8196,41.05238 L101.8563,41.88123 L102.3592,41.52588 L101.951,40.51958 L101.951,39.15748 L102.7325,38.03304 L103.3365,38.03304 L104.7455,37.91444 L105.675,38.80213 L106.4804,39.63144 L106.5338,41.40773 L107.6173,41.34843 L107.6826,42.71053 L109.6717,43.06588 L110.6665,44.01287 L111.614,44.60497 L113.8169,44.90102 L114.4204,46.67732 L115.5279,47.62477 L115.8,46.73662 L116.7534,45.73033 L117.1502,44.36823 L116.6767,43.42123 L117.4701,43.06588 L118.2103,43.06588 L119.0924,42.17728 L118.9504,40.51958 L118.2751,39.15748 L118.4111,36.78909 L119.0152,35.36814 L119.4059,33.94719 L118.4111,32.58555 L116.6767,32.64439 L115.2732,32.2302 L113.935,31.6381 L112.5435,30.9867 L112.218,29.7432 L113.3489,28.67761 L113.2836,27.13806 L114.1423,26.07246 L115.0185,25.71711 L115.8,24.94711 L115.6699,23.11151 L115.9366,22.10476 L115.8,19.97357 L115.2732,18.25658 L115.8773,16.77587 L115.5693,15.47353 L113.8817,15.05888 L111.7266,14.64468 L110.6665,15.05888 z" stroke="#000000" stroke-width="0.24" fill-opacity="0" />
  <path d="M40.44304,46.55917 L40.33041,47.38802 L41.18317,47.92082 L42.14211,48.09872 L42.82891,48.63152 L43.24953,49.34222 L43.94231,49.51967 L44.39788,49.28292 L43.94231,47.92082 L45.04927,47.15081 L45.13846,46.14452 L44.72978,45.43428 L43.65775,45.01963 L42.76409,45.43428 L41.34866,46.08568 z" stroke="#000000" stroke-width="0.24" fill-opacity="0" />
</svg>